%TF.GenerationSoftware,KiCad,Pcbnew,5.1.9+dfsg1-1+deb11u1*%
%TF.CreationDate,2023-02-21T15:32:32-05:00*%
%TF.ProjectId,DAC8811-sch,44414338-3831-4312-9d73-63682e6b6963,rev?*%
%TF.SameCoordinates,Original*%
%TF.FileFunction,Copper,L1,Top*%
%TF.FilePolarity,Positive*%
%FSLAX46Y46*%
G04 Gerber Fmt 4.6, Leading zero omitted, Abs format (unit mm)*
G04 Created by KiCad (PCBNEW 5.1.9+dfsg1-1+deb11u1) date 2023-02-21 15:32:32*
%MOMM*%
%LPD*%
G01*
G04 APERTURE LIST*
%TA.AperFunction,ComponentPad*%
%ADD10R,1.700000X1.700000*%
%TD*%
%TA.AperFunction,ComponentPad*%
%ADD11O,1.700000X1.700000*%
%TD*%
%TA.AperFunction,ComponentPad*%
%ADD12R,3.500000X3.500000*%
%TD*%
%TA.AperFunction,ComponentPad*%
%ADD13R,2.600000X2.600000*%
%TD*%
%TA.AperFunction,ComponentPad*%
%ADD14C,2.600000*%
%TD*%
%TA.AperFunction,ComponentPad*%
%ADD15C,5.000000*%
%TD*%
%TA.AperFunction,ViaPad*%
%ADD16C,0.800000*%
%TD*%
%TA.AperFunction,Conductor*%
%ADD17C,0.250000*%
%TD*%
G04 APERTURE END LIST*
%TO.P,C1,2*%
%TO.N,GND1*%
%TA.AperFunction,SMDPad,CuDef*%
G36*
G01*
X139683500Y-107879000D02*
X139208500Y-107879000D01*
G75*
G02*
X138971000Y-107641500I0J237500D01*
G01*
X138971000Y-107041500D01*
G75*
G02*
X139208500Y-106804000I237500J0D01*
G01*
X139683500Y-106804000D01*
G75*
G02*
X139921000Y-107041500I0J-237500D01*
G01*
X139921000Y-107641500D01*
G75*
G02*
X139683500Y-107879000I-237500J0D01*
G01*
G37*
%TD.AperFunction*%
%TO.P,C1,1*%
%TO.N,OPAMP_P*%
%TA.AperFunction,SMDPad,CuDef*%
G36*
G01*
X139683500Y-109604000D02*
X139208500Y-109604000D01*
G75*
G02*
X138971000Y-109366500I0J237500D01*
G01*
X138971000Y-108766500D01*
G75*
G02*
X139208500Y-108529000I237500J0D01*
G01*
X139683500Y-108529000D01*
G75*
G02*
X139921000Y-108766500I0J-237500D01*
G01*
X139921000Y-109366500D01*
G75*
G02*
X139683500Y-109604000I-237500J0D01*
G01*
G37*
%TD.AperFunction*%
%TD*%
%TO.P,C2,1*%
%TO.N,GND1*%
%TA.AperFunction,SMDPad,CuDef*%
G36*
G01*
X129556500Y-111984500D02*
X130031500Y-111984500D01*
G75*
G02*
X130269000Y-112222000I0J-237500D01*
G01*
X130269000Y-112822000D01*
G75*
G02*
X130031500Y-113059500I-237500J0D01*
G01*
X129556500Y-113059500D01*
G75*
G02*
X129319000Y-112822000I0J237500D01*
G01*
X129319000Y-112222000D01*
G75*
G02*
X129556500Y-111984500I237500J0D01*
G01*
G37*
%TD.AperFunction*%
%TO.P,C2,2*%
%TO.N,OPAMP_N*%
%TA.AperFunction,SMDPad,CuDef*%
G36*
G01*
X129556500Y-113709500D02*
X130031500Y-113709500D01*
G75*
G02*
X130269000Y-113947000I0J-237500D01*
G01*
X130269000Y-114547000D01*
G75*
G02*
X130031500Y-114784500I-237500J0D01*
G01*
X129556500Y-114784500D01*
G75*
G02*
X129319000Y-114547000I0J237500D01*
G01*
X129319000Y-113947000D01*
G75*
G02*
X129556500Y-113709500I237500J0D01*
G01*
G37*
%TD.AperFunction*%
%TD*%
%TO.P,C3,2*%
%TO.N,GND1*%
%TA.AperFunction,SMDPad,CuDef*%
G36*
G01*
X137350500Y-107796000D02*
X137350500Y-107596000D01*
G75*
G02*
X137450500Y-107496000I100000J0D01*
G01*
X137885500Y-107496000D01*
G75*
G02*
X137985500Y-107596000I0J-100000D01*
G01*
X137985500Y-107796000D01*
G75*
G02*
X137885500Y-107896000I-100000J0D01*
G01*
X137450500Y-107896000D01*
G75*
G02*
X137350500Y-107796000I0J100000D01*
G01*
G37*
%TD.AperFunction*%
%TO.P,C3,1*%
%TO.N,OPAMP_P*%
%TA.AperFunction,SMDPad,CuDef*%
G36*
G01*
X136535500Y-107796000D02*
X136535500Y-107596000D01*
G75*
G02*
X136635500Y-107496000I100000J0D01*
G01*
X137070500Y-107496000D01*
G75*
G02*
X137170500Y-107596000I0J-100000D01*
G01*
X137170500Y-107796000D01*
G75*
G02*
X137070500Y-107896000I-100000J0D01*
G01*
X136635500Y-107896000D01*
G75*
G02*
X136535500Y-107796000I0J100000D01*
G01*
G37*
%TD.AperFunction*%
%TD*%
%TO.P,C4,1*%
%TO.N,GND1*%
%TA.AperFunction,SMDPad,CuDef*%
G36*
G01*
X132805000Y-114454000D02*
X132805000Y-114654000D01*
G75*
G02*
X132705000Y-114754000I-100000J0D01*
G01*
X132270000Y-114754000D01*
G75*
G02*
X132170000Y-114654000I0J100000D01*
G01*
X132170000Y-114454000D01*
G75*
G02*
X132270000Y-114354000I100000J0D01*
G01*
X132705000Y-114354000D01*
G75*
G02*
X132805000Y-114454000I0J-100000D01*
G01*
G37*
%TD.AperFunction*%
%TO.P,C4,2*%
%TO.N,OPAMP_N*%
%TA.AperFunction,SMDPad,CuDef*%
G36*
G01*
X131990000Y-114454000D02*
X131990000Y-114654000D01*
G75*
G02*
X131890000Y-114754000I-100000J0D01*
G01*
X131455000Y-114754000D01*
G75*
G02*
X131355000Y-114654000I0J100000D01*
G01*
X131355000Y-114454000D01*
G75*
G02*
X131455000Y-114354000I100000J0D01*
G01*
X131890000Y-114354000D01*
G75*
G02*
X131990000Y-114454000I0J-100000D01*
G01*
G37*
%TD.AperFunction*%
%TD*%
%TO.P,C5,1*%
%TO.N,DVDD*%
%TA.AperFunction,SMDPad,CuDef*%
G36*
G01*
X126000500Y-115286500D02*
X126475500Y-115286500D01*
G75*
G02*
X126713000Y-115524000I0J-237500D01*
G01*
X126713000Y-116124000D01*
G75*
G02*
X126475500Y-116361500I-237500J0D01*
G01*
X126000500Y-116361500D01*
G75*
G02*
X125763000Y-116124000I0J237500D01*
G01*
X125763000Y-115524000D01*
G75*
G02*
X126000500Y-115286500I237500J0D01*
G01*
G37*
%TD.AperFunction*%
%TO.P,C5,2*%
%TO.N,GND1*%
%TA.AperFunction,SMDPad,CuDef*%
G36*
G01*
X126000500Y-117011500D02*
X126475500Y-117011500D01*
G75*
G02*
X126713000Y-117249000I0J-237500D01*
G01*
X126713000Y-117849000D01*
G75*
G02*
X126475500Y-118086500I-237500J0D01*
G01*
X126000500Y-118086500D01*
G75*
G02*
X125763000Y-117849000I0J237500D01*
G01*
X125763000Y-117249000D01*
G75*
G02*
X126000500Y-117011500I237500J0D01*
G01*
G37*
%TD.AperFunction*%
%TD*%
%TO.P,C6,2*%
%TO.N,GND1*%
%TA.AperFunction,SMDPad,CuDef*%
G36*
G01*
X126000500Y-111069000D02*
X126475500Y-111069000D01*
G75*
G02*
X126713000Y-111306500I0J-237500D01*
G01*
X126713000Y-111906500D01*
G75*
G02*
X126475500Y-112144000I-237500J0D01*
G01*
X126000500Y-112144000D01*
G75*
G02*
X125763000Y-111906500I0J237500D01*
G01*
X125763000Y-111306500D01*
G75*
G02*
X126000500Y-111069000I237500J0D01*
G01*
G37*
%TD.AperFunction*%
%TO.P,C6,1*%
%TO.N,DVDD*%
%TA.AperFunction,SMDPad,CuDef*%
G36*
G01*
X126000500Y-109344000D02*
X126475500Y-109344000D01*
G75*
G02*
X126713000Y-109581500I0J-237500D01*
G01*
X126713000Y-110181500D01*
G75*
G02*
X126475500Y-110419000I-237500J0D01*
G01*
X126000500Y-110419000D01*
G75*
G02*
X125763000Y-110181500I0J237500D01*
G01*
X125763000Y-109581500D01*
G75*
G02*
X126000500Y-109344000I237500J0D01*
G01*
G37*
%TD.AperFunction*%
%TD*%
%TO.P,C7,2*%
%TO.N,GND1*%
%TA.AperFunction,SMDPad,CuDef*%
G36*
G01*
X124868000Y-116676000D02*
X125068000Y-116676000D01*
G75*
G02*
X125168000Y-116776000I0J-100000D01*
G01*
X125168000Y-117211000D01*
G75*
G02*
X125068000Y-117311000I-100000J0D01*
G01*
X124868000Y-117311000D01*
G75*
G02*
X124768000Y-117211000I0J100000D01*
G01*
X124768000Y-116776000D01*
G75*
G02*
X124868000Y-116676000I100000J0D01*
G01*
G37*
%TD.AperFunction*%
%TO.P,C7,1*%
%TO.N,DVDD*%
%TA.AperFunction,SMDPad,CuDef*%
G36*
G01*
X124868000Y-115861000D02*
X125068000Y-115861000D01*
G75*
G02*
X125168000Y-115961000I0J-100000D01*
G01*
X125168000Y-116396000D01*
G75*
G02*
X125068000Y-116496000I-100000J0D01*
G01*
X124868000Y-116496000D01*
G75*
G02*
X124768000Y-116396000I0J100000D01*
G01*
X124768000Y-115961000D01*
G75*
G02*
X124868000Y-115861000I100000J0D01*
G01*
G37*
%TD.AperFunction*%
%TD*%
%TO.P,C8,2*%
%TO.N,GND1*%
%TA.AperFunction,SMDPad,CuDef*%
G36*
G01*
X124868000Y-110834000D02*
X125068000Y-110834000D01*
G75*
G02*
X125168000Y-110934000I0J-100000D01*
G01*
X125168000Y-111369000D01*
G75*
G02*
X125068000Y-111469000I-100000J0D01*
G01*
X124868000Y-111469000D01*
G75*
G02*
X124768000Y-111369000I0J100000D01*
G01*
X124768000Y-110934000D01*
G75*
G02*
X124868000Y-110834000I100000J0D01*
G01*
G37*
%TD.AperFunction*%
%TO.P,C8,1*%
%TO.N,DVDD*%
%TA.AperFunction,SMDPad,CuDef*%
G36*
G01*
X124868000Y-110019000D02*
X125068000Y-110019000D01*
G75*
G02*
X125168000Y-110119000I0J-100000D01*
G01*
X125168000Y-110554000D01*
G75*
G02*
X125068000Y-110654000I-100000J0D01*
G01*
X124868000Y-110654000D01*
G75*
G02*
X124768000Y-110554000I0J100000D01*
G01*
X124768000Y-110119000D01*
G75*
G02*
X124868000Y-110019000I100000J0D01*
G01*
G37*
%TD.AperFunction*%
%TD*%
%TO.P,C9,1*%
%TO.N,DVDD*%
%TA.AperFunction,SMDPad,CuDef*%
G36*
G01*
X123852000Y-115861000D02*
X124052000Y-115861000D01*
G75*
G02*
X124152000Y-115961000I0J-100000D01*
G01*
X124152000Y-116396000D01*
G75*
G02*
X124052000Y-116496000I-100000J0D01*
G01*
X123852000Y-116496000D01*
G75*
G02*
X123752000Y-116396000I0J100000D01*
G01*
X123752000Y-115961000D01*
G75*
G02*
X123852000Y-115861000I100000J0D01*
G01*
G37*
%TD.AperFunction*%
%TO.P,C9,2*%
%TO.N,GND1*%
%TA.AperFunction,SMDPad,CuDef*%
G36*
G01*
X123852000Y-116676000D02*
X124052000Y-116676000D01*
G75*
G02*
X124152000Y-116776000I0J-100000D01*
G01*
X124152000Y-117211000D01*
G75*
G02*
X124052000Y-117311000I-100000J0D01*
G01*
X123852000Y-117311000D01*
G75*
G02*
X123752000Y-117211000I0J100000D01*
G01*
X123752000Y-116776000D01*
G75*
G02*
X123852000Y-116676000I100000J0D01*
G01*
G37*
%TD.AperFunction*%
%TD*%
%TO.P,C10,1*%
%TO.N,DVDD*%
%TA.AperFunction,SMDPad,CuDef*%
G36*
G01*
X123852000Y-110019000D02*
X124052000Y-110019000D01*
G75*
G02*
X124152000Y-110119000I0J-100000D01*
G01*
X124152000Y-110554000D01*
G75*
G02*
X124052000Y-110654000I-100000J0D01*
G01*
X123852000Y-110654000D01*
G75*
G02*
X123752000Y-110554000I0J100000D01*
G01*
X123752000Y-110119000D01*
G75*
G02*
X123852000Y-110019000I100000J0D01*
G01*
G37*
%TD.AperFunction*%
%TO.P,C10,2*%
%TO.N,GND1*%
%TA.AperFunction,SMDPad,CuDef*%
G36*
G01*
X123852000Y-110834000D02*
X124052000Y-110834000D01*
G75*
G02*
X124152000Y-110934000I0J-100000D01*
G01*
X124152000Y-111369000D01*
G75*
G02*
X124052000Y-111469000I-100000J0D01*
G01*
X123852000Y-111469000D01*
G75*
G02*
X123752000Y-111369000I0J100000D01*
G01*
X123752000Y-110934000D01*
G75*
G02*
X123852000Y-110834000I100000J0D01*
G01*
G37*
%TD.AperFunction*%
%TD*%
%TO.P,C21,1*%
%TO.N,OPAMP_P*%
%TA.AperFunction,SMDPad,CuDef*%
G36*
G01*
X139429500Y-120018000D02*
X138954500Y-120018000D01*
G75*
G02*
X138717000Y-119780500I0J237500D01*
G01*
X138717000Y-119180500D01*
G75*
G02*
X138954500Y-118943000I237500J0D01*
G01*
X139429500Y-118943000D01*
G75*
G02*
X139667000Y-119180500I0J-237500D01*
G01*
X139667000Y-119780500D01*
G75*
G02*
X139429500Y-120018000I-237500J0D01*
G01*
G37*
%TD.AperFunction*%
%TO.P,C21,2*%
%TO.N,GND1*%
%TA.AperFunction,SMDPad,CuDef*%
G36*
G01*
X139429500Y-118293000D02*
X138954500Y-118293000D01*
G75*
G02*
X138717000Y-118055500I0J237500D01*
G01*
X138717000Y-117455500D01*
G75*
G02*
X138954500Y-117218000I237500J0D01*
G01*
X139429500Y-117218000D01*
G75*
G02*
X139667000Y-117455500I0J-237500D01*
G01*
X139667000Y-118055500D01*
G75*
G02*
X139429500Y-118293000I-237500J0D01*
G01*
G37*
%TD.AperFunction*%
%TD*%
%TO.P,C22,2*%
%TO.N,OPAMP_N*%
%TA.AperFunction,SMDPad,CuDef*%
G36*
G01*
X129302500Y-124023000D02*
X129777500Y-124023000D01*
G75*
G02*
X130015000Y-124260500I0J-237500D01*
G01*
X130015000Y-124860500D01*
G75*
G02*
X129777500Y-125098000I-237500J0D01*
G01*
X129302500Y-125098000D01*
G75*
G02*
X129065000Y-124860500I0J237500D01*
G01*
X129065000Y-124260500D01*
G75*
G02*
X129302500Y-124023000I237500J0D01*
G01*
G37*
%TD.AperFunction*%
%TO.P,C22,1*%
%TO.N,GND1*%
%TA.AperFunction,SMDPad,CuDef*%
G36*
G01*
X129302500Y-122298000D02*
X129777500Y-122298000D01*
G75*
G02*
X130015000Y-122535500I0J-237500D01*
G01*
X130015000Y-123135500D01*
G75*
G02*
X129777500Y-123373000I-237500J0D01*
G01*
X129302500Y-123373000D01*
G75*
G02*
X129065000Y-123135500I0J237500D01*
G01*
X129065000Y-122535500D01*
G75*
G02*
X129302500Y-122298000I237500J0D01*
G01*
G37*
%TD.AperFunction*%
%TD*%
%TO.P,C23,2*%
%TO.N,GND1*%
%TA.AperFunction,SMDPad,CuDef*%
G36*
G01*
X137250000Y-118210000D02*
X137250000Y-118010000D01*
G75*
G02*
X137350000Y-117910000I100000J0D01*
G01*
X137785000Y-117910000D01*
G75*
G02*
X137885000Y-118010000I0J-100000D01*
G01*
X137885000Y-118210000D01*
G75*
G02*
X137785000Y-118310000I-100000J0D01*
G01*
X137350000Y-118310000D01*
G75*
G02*
X137250000Y-118210000I0J100000D01*
G01*
G37*
%TD.AperFunction*%
%TO.P,C23,1*%
%TO.N,OPAMP_P*%
%TA.AperFunction,SMDPad,CuDef*%
G36*
G01*
X136435000Y-118210000D02*
X136435000Y-118010000D01*
G75*
G02*
X136535000Y-117910000I100000J0D01*
G01*
X136970000Y-117910000D01*
G75*
G02*
X137070000Y-118010000I0J-100000D01*
G01*
X137070000Y-118210000D01*
G75*
G02*
X136970000Y-118310000I-100000J0D01*
G01*
X136535000Y-118310000D01*
G75*
G02*
X136435000Y-118210000I0J100000D01*
G01*
G37*
%TD.AperFunction*%
%TD*%
%TO.P,C24,1*%
%TO.N,GND1*%
%TA.AperFunction,SMDPad,CuDef*%
G36*
G01*
X132551000Y-124868000D02*
X132551000Y-125068000D01*
G75*
G02*
X132451000Y-125168000I-100000J0D01*
G01*
X132016000Y-125168000D01*
G75*
G02*
X131916000Y-125068000I0J100000D01*
G01*
X131916000Y-124868000D01*
G75*
G02*
X132016000Y-124768000I100000J0D01*
G01*
X132451000Y-124768000D01*
G75*
G02*
X132551000Y-124868000I0J-100000D01*
G01*
G37*
%TD.AperFunction*%
%TO.P,C24,2*%
%TO.N,OPAMP_N*%
%TA.AperFunction,SMDPad,CuDef*%
G36*
G01*
X131736000Y-124868000D02*
X131736000Y-125068000D01*
G75*
G02*
X131636000Y-125168000I-100000J0D01*
G01*
X131201000Y-125168000D01*
G75*
G02*
X131101000Y-125068000I0J100000D01*
G01*
X131101000Y-124868000D01*
G75*
G02*
X131201000Y-124768000I100000J0D01*
G01*
X131636000Y-124768000D01*
G75*
G02*
X131736000Y-124868000I0J-100000D01*
G01*
G37*
%TD.AperFunction*%
%TD*%
D10*
%TO.P,J1,1*%
%TO.N,SCLK*%
X112776000Y-109728000D03*
D11*
%TO.P,J1,2*%
%TO.N,SDIN*%
X112776000Y-112268000D03*
%TO.P,J1,3*%
%TO.N,CS_X*%
X112776000Y-114808000D03*
%TO.P,J1,4*%
%TO.N,CS_Y*%
X112776000Y-117348000D03*
%TO.P,J1,5*%
%TO.N,DVDD*%
X112776000Y-119888000D03*
%TO.P,J1,6*%
%TO.N,5V*%
X112776000Y-122428000D03*
%TO.P,J1,7*%
%TO.N,GND1*%
X112776000Y-124968000D03*
%TD*%
D12*
%TO.P,J3,1*%
%TO.N,OPAMP_P*%
X124968000Y-100076000D03*
%TO.P,J3,2*%
%TO.N,OPAMP_N*%
%TA.AperFunction,ComponentPad*%
G36*
G01*
X117468000Y-101076000D02*
X117468000Y-99076000D01*
G75*
G02*
X118218000Y-98326000I750000J0D01*
G01*
X119718000Y-98326000D01*
G75*
G02*
X120468000Y-99076000I0J-750000D01*
G01*
X120468000Y-101076000D01*
G75*
G02*
X119718000Y-101826000I-750000J0D01*
G01*
X118218000Y-101826000D01*
G75*
G02*
X117468000Y-101076000I0J750000D01*
G01*
G37*
%TD.AperFunction*%
%TO.P,J3,3*%
%TO.N,N/C*%
%TA.AperFunction,ComponentPad*%
G36*
G01*
X120218000Y-105651000D02*
X120218000Y-103901000D01*
G75*
G02*
X121093000Y-103026000I875000J0D01*
G01*
X122843000Y-103026000D01*
G75*
G02*
X123718000Y-103901000I0J-875000D01*
G01*
X123718000Y-105651000D01*
G75*
G02*
X122843000Y-106526000I-875000J0D01*
G01*
X121093000Y-106526000D01*
G75*
G02*
X120218000Y-105651000I0J875000D01*
G01*
G37*
%TD.AperFunction*%
%TD*%
D10*
%TO.P,J4,1*%
%TO.N,VOUT_Y_P*%
X142494000Y-118618000D03*
D11*
%TO.P,J4,2*%
%TO.N,GND1*%
X142494000Y-121158000D03*
%TO.P,J4,3*%
%TO.N,VOUT_Y_N*%
X142494000Y-123698000D03*
%TD*%
%TO.P,J5,3*%
%TO.N,VOUT_X_N*%
X142494000Y-113284000D03*
%TO.P,J5,2*%
%TO.N,GND1*%
X142494000Y-110744000D03*
D10*
%TO.P,J5,1*%
%TO.N,VOUT_X_P*%
X142494000Y-108204000D03*
%TD*%
%TO.P,R1,2*%
%TO.N,Net-(R1-Pad2)*%
%TA.AperFunction,SMDPad,CuDef*%
G36*
G01*
X138778000Y-121995500D02*
X139098000Y-121995500D01*
G75*
G02*
X139258000Y-122155500I0J-160000D01*
G01*
X139258000Y-122550500D01*
G75*
G02*
X139098000Y-122710500I-160000J0D01*
G01*
X138778000Y-122710500D01*
G75*
G02*
X138618000Y-122550500I0J160000D01*
G01*
X138618000Y-122155500D01*
G75*
G02*
X138778000Y-121995500I160000J0D01*
G01*
G37*
%TD.AperFunction*%
%TO.P,R1,1*%
%TO.N,VOUT_Y_N*%
%TA.AperFunction,SMDPad,CuDef*%
G36*
G01*
X138778000Y-120800500D02*
X139098000Y-120800500D01*
G75*
G02*
X139258000Y-120960500I0J-160000D01*
G01*
X139258000Y-121355500D01*
G75*
G02*
X139098000Y-121515500I-160000J0D01*
G01*
X138778000Y-121515500D01*
G75*
G02*
X138618000Y-121355500I0J160000D01*
G01*
X138618000Y-120960500D01*
G75*
G02*
X138778000Y-120800500I160000J0D01*
G01*
G37*
%TD.AperFunction*%
%TD*%
%TO.P,R2,1*%
%TO.N,VOUT_Y_P*%
%TA.AperFunction,SMDPad,CuDef*%
G36*
G01*
X133411000Y-118270000D02*
X133411000Y-117950000D01*
G75*
G02*
X133571000Y-117790000I160000J0D01*
G01*
X133966000Y-117790000D01*
G75*
G02*
X134126000Y-117950000I0J-160000D01*
G01*
X134126000Y-118270000D01*
G75*
G02*
X133966000Y-118430000I-160000J0D01*
G01*
X133571000Y-118430000D01*
G75*
G02*
X133411000Y-118270000I0J160000D01*
G01*
G37*
%TD.AperFunction*%
%TO.P,R2,2*%
%TO.N,Net-(R1-Pad2)*%
%TA.AperFunction,SMDPad,CuDef*%
G36*
G01*
X134606000Y-118270000D02*
X134606000Y-117950000D01*
G75*
G02*
X134766000Y-117790000I160000J0D01*
G01*
X135161000Y-117790000D01*
G75*
G02*
X135321000Y-117950000I0J-160000D01*
G01*
X135321000Y-118270000D01*
G75*
G02*
X135161000Y-118430000I-160000J0D01*
G01*
X134766000Y-118430000D01*
G75*
G02*
X134606000Y-118270000I0J160000D01*
G01*
G37*
%TD.AperFunction*%
%TD*%
%TO.P,R3,2*%
%TO.N,Net-(R3-Pad2)*%
%TA.AperFunction,SMDPad,CuDef*%
G36*
G01*
X139032000Y-111581500D02*
X139352000Y-111581500D01*
G75*
G02*
X139512000Y-111741500I0J-160000D01*
G01*
X139512000Y-112136500D01*
G75*
G02*
X139352000Y-112296500I-160000J0D01*
G01*
X139032000Y-112296500D01*
G75*
G02*
X138872000Y-112136500I0J160000D01*
G01*
X138872000Y-111741500D01*
G75*
G02*
X139032000Y-111581500I160000J0D01*
G01*
G37*
%TD.AperFunction*%
%TO.P,R3,1*%
%TO.N,VOUT_X_N*%
%TA.AperFunction,SMDPad,CuDef*%
G36*
G01*
X139032000Y-110386500D02*
X139352000Y-110386500D01*
G75*
G02*
X139512000Y-110546500I0J-160000D01*
G01*
X139512000Y-110941500D01*
G75*
G02*
X139352000Y-111101500I-160000J0D01*
G01*
X139032000Y-111101500D01*
G75*
G02*
X138872000Y-110941500I0J160000D01*
G01*
X138872000Y-110546500D01*
G75*
G02*
X139032000Y-110386500I160000J0D01*
G01*
G37*
%TD.AperFunction*%
%TD*%
%TO.P,R4,1*%
%TO.N,VOUT_X_P*%
%TA.AperFunction,SMDPad,CuDef*%
G36*
G01*
X133665000Y-107856000D02*
X133665000Y-107536000D01*
G75*
G02*
X133825000Y-107376000I160000J0D01*
G01*
X134220000Y-107376000D01*
G75*
G02*
X134380000Y-107536000I0J-160000D01*
G01*
X134380000Y-107856000D01*
G75*
G02*
X134220000Y-108016000I-160000J0D01*
G01*
X133825000Y-108016000D01*
G75*
G02*
X133665000Y-107856000I0J160000D01*
G01*
G37*
%TD.AperFunction*%
%TO.P,R4,2*%
%TO.N,Net-(R3-Pad2)*%
%TA.AperFunction,SMDPad,CuDef*%
G36*
G01*
X134860000Y-107856000D02*
X134860000Y-107536000D01*
G75*
G02*
X135020000Y-107376000I160000J0D01*
G01*
X135415000Y-107376000D01*
G75*
G02*
X135575000Y-107536000I0J-160000D01*
G01*
X135575000Y-107856000D01*
G75*
G02*
X135415000Y-108016000I-160000J0D01*
G01*
X135020000Y-108016000D01*
G75*
G02*
X134860000Y-107856000I0J160000D01*
G01*
G37*
%TD.AperFunction*%
%TD*%
%TO.P,U1,8*%
%TO.N,CS_Y*%
%TA.AperFunction,SMDPad,CuDef*%
G36*
G01*
X121693000Y-115781200D02*
X121693000Y-115358800D01*
G75*
G02*
X121721800Y-115330000I28800J0D01*
G01*
X123134200Y-115330000D01*
G75*
G02*
X123163000Y-115358800I0J-28800D01*
G01*
X123163000Y-115781200D01*
G75*
G02*
X123134200Y-115810000I-28800J0D01*
G01*
X121721800Y-115810000D01*
G75*
G02*
X121693000Y-115781200I0J28800D01*
G01*
G37*
%TD.AperFunction*%
%TO.P,U1,7*%
%TO.N,DVDD*%
%TA.AperFunction,SMDPad,CuDef*%
G36*
G01*
X121693000Y-116431200D02*
X121693000Y-116008800D01*
G75*
G02*
X121721800Y-115980000I28800J0D01*
G01*
X123134200Y-115980000D01*
G75*
G02*
X123163000Y-116008800I0J-28800D01*
G01*
X123163000Y-116431200D01*
G75*
G02*
X123134200Y-116460000I-28800J0D01*
G01*
X121721800Y-116460000D01*
G75*
G02*
X121693000Y-116431200I0J28800D01*
G01*
G37*
%TD.AperFunction*%
%TO.P,U1,6*%
%TO.N,GND1*%
%TA.AperFunction,SMDPad,CuDef*%
G36*
G01*
X121693000Y-117081200D02*
X121693000Y-116658800D01*
G75*
G02*
X121721800Y-116630000I28800J0D01*
G01*
X123134200Y-116630000D01*
G75*
G02*
X123163000Y-116658800I0J-28800D01*
G01*
X123163000Y-117081200D01*
G75*
G02*
X123134200Y-117110000I-28800J0D01*
G01*
X121721800Y-117110000D01*
G75*
G02*
X121693000Y-117081200I0J28800D01*
G01*
G37*
%TD.AperFunction*%
%TO.P,U1,5*%
%TO.N,Net-(U1-Pad3)*%
%TA.AperFunction,SMDPad,CuDef*%
G36*
G01*
X121693000Y-117731200D02*
X121693000Y-117308800D01*
G75*
G02*
X121721800Y-117280000I28800J0D01*
G01*
X123134200Y-117280000D01*
G75*
G02*
X123163000Y-117308800I0J-28800D01*
G01*
X123163000Y-117731200D01*
G75*
G02*
X123134200Y-117760000I-28800J0D01*
G01*
X121721800Y-117760000D01*
G75*
G02*
X121693000Y-117731200I0J28800D01*
G01*
G37*
%TD.AperFunction*%
%TO.P,U1,4*%
%TO.N,Vref_y*%
%TA.AperFunction,SMDPad,CuDef*%
G36*
G01*
X117393000Y-117731200D02*
X117393000Y-117308800D01*
G75*
G02*
X117421800Y-117280000I28800J0D01*
G01*
X118834200Y-117280000D01*
G75*
G02*
X118863000Y-117308800I0J-28800D01*
G01*
X118863000Y-117731200D01*
G75*
G02*
X118834200Y-117760000I-28800J0D01*
G01*
X117421800Y-117760000D01*
G75*
G02*
X117393000Y-117731200I0J28800D01*
G01*
G37*
%TD.AperFunction*%
%TO.P,U1,3*%
%TO.N,Net-(U1-Pad3)*%
%TA.AperFunction,SMDPad,CuDef*%
G36*
G01*
X117393000Y-117081200D02*
X117393000Y-116658800D01*
G75*
G02*
X117421800Y-116630000I28800J0D01*
G01*
X118834200Y-116630000D01*
G75*
G02*
X118863000Y-116658800I0J-28800D01*
G01*
X118863000Y-117081200D01*
G75*
G02*
X118834200Y-117110000I-28800J0D01*
G01*
X117421800Y-117110000D01*
G75*
G02*
X117393000Y-117081200I0J28800D01*
G01*
G37*
%TD.AperFunction*%
%TO.P,U1,2*%
%TO.N,SDIN*%
%TA.AperFunction,SMDPad,CuDef*%
G36*
G01*
X117393000Y-116431200D02*
X117393000Y-116008800D01*
G75*
G02*
X117421800Y-115980000I28800J0D01*
G01*
X118834200Y-115980000D01*
G75*
G02*
X118863000Y-116008800I0J-28800D01*
G01*
X118863000Y-116431200D01*
G75*
G02*
X118834200Y-116460000I-28800J0D01*
G01*
X117421800Y-116460000D01*
G75*
G02*
X117393000Y-116431200I0J28800D01*
G01*
G37*
%TD.AperFunction*%
%TO.P,U1,1*%
%TO.N,SCLK*%
%TA.AperFunction,SMDPad,CuDef*%
G36*
G01*
X117393000Y-115781200D02*
X117393000Y-115358800D01*
G75*
G02*
X117421800Y-115330000I28800J0D01*
G01*
X118834200Y-115330000D01*
G75*
G02*
X118863000Y-115358800I0J-28800D01*
G01*
X118863000Y-115781200D01*
G75*
G02*
X118834200Y-115810000I-28800J0D01*
G01*
X117421800Y-115810000D01*
G75*
G02*
X117393000Y-115781200I0J28800D01*
G01*
G37*
%TD.AperFunction*%
%TD*%
%TO.P,U2,1*%
%TO.N,SCLK*%
%TA.AperFunction,SMDPad,CuDef*%
G36*
G01*
X117375000Y-110051200D02*
X117375000Y-109628800D01*
G75*
G02*
X117403800Y-109600000I28800J0D01*
G01*
X118816200Y-109600000D01*
G75*
G02*
X118845000Y-109628800I0J-28800D01*
G01*
X118845000Y-110051200D01*
G75*
G02*
X118816200Y-110080000I-28800J0D01*
G01*
X117403800Y-110080000D01*
G75*
G02*
X117375000Y-110051200I0J28800D01*
G01*
G37*
%TD.AperFunction*%
%TO.P,U2,2*%
%TO.N,SDIN*%
%TA.AperFunction,SMDPad,CuDef*%
G36*
G01*
X117375000Y-110701200D02*
X117375000Y-110278800D01*
G75*
G02*
X117403800Y-110250000I28800J0D01*
G01*
X118816200Y-110250000D01*
G75*
G02*
X118845000Y-110278800I0J-28800D01*
G01*
X118845000Y-110701200D01*
G75*
G02*
X118816200Y-110730000I-28800J0D01*
G01*
X117403800Y-110730000D01*
G75*
G02*
X117375000Y-110701200I0J28800D01*
G01*
G37*
%TD.AperFunction*%
%TO.P,U2,3*%
%TO.N,Net-(U2-Pad3)*%
%TA.AperFunction,SMDPad,CuDef*%
G36*
G01*
X117375000Y-111351200D02*
X117375000Y-110928800D01*
G75*
G02*
X117403800Y-110900000I28800J0D01*
G01*
X118816200Y-110900000D01*
G75*
G02*
X118845000Y-110928800I0J-28800D01*
G01*
X118845000Y-111351200D01*
G75*
G02*
X118816200Y-111380000I-28800J0D01*
G01*
X117403800Y-111380000D01*
G75*
G02*
X117375000Y-111351200I0J28800D01*
G01*
G37*
%TD.AperFunction*%
%TO.P,U2,4*%
%TO.N,Vref_x*%
%TA.AperFunction,SMDPad,CuDef*%
G36*
G01*
X117375000Y-112001200D02*
X117375000Y-111578800D01*
G75*
G02*
X117403800Y-111550000I28800J0D01*
G01*
X118816200Y-111550000D01*
G75*
G02*
X118845000Y-111578800I0J-28800D01*
G01*
X118845000Y-112001200D01*
G75*
G02*
X118816200Y-112030000I-28800J0D01*
G01*
X117403800Y-112030000D01*
G75*
G02*
X117375000Y-112001200I0J28800D01*
G01*
G37*
%TD.AperFunction*%
%TO.P,U2,5*%
%TO.N,Net-(U2-Pad3)*%
%TA.AperFunction,SMDPad,CuDef*%
G36*
G01*
X121675000Y-112001200D02*
X121675000Y-111578800D01*
G75*
G02*
X121703800Y-111550000I28800J0D01*
G01*
X123116200Y-111550000D01*
G75*
G02*
X123145000Y-111578800I0J-28800D01*
G01*
X123145000Y-112001200D01*
G75*
G02*
X123116200Y-112030000I-28800J0D01*
G01*
X121703800Y-112030000D01*
G75*
G02*
X121675000Y-112001200I0J28800D01*
G01*
G37*
%TD.AperFunction*%
%TO.P,U2,6*%
%TO.N,GND1*%
%TA.AperFunction,SMDPad,CuDef*%
G36*
G01*
X121675000Y-111351200D02*
X121675000Y-110928800D01*
G75*
G02*
X121703800Y-110900000I28800J0D01*
G01*
X123116200Y-110900000D01*
G75*
G02*
X123145000Y-110928800I0J-28800D01*
G01*
X123145000Y-111351200D01*
G75*
G02*
X123116200Y-111380000I-28800J0D01*
G01*
X121703800Y-111380000D01*
G75*
G02*
X121675000Y-111351200I0J28800D01*
G01*
G37*
%TD.AperFunction*%
%TO.P,U2,7*%
%TO.N,DVDD*%
%TA.AperFunction,SMDPad,CuDef*%
G36*
G01*
X121675000Y-110701200D02*
X121675000Y-110278800D01*
G75*
G02*
X121703800Y-110250000I28800J0D01*
G01*
X123116200Y-110250000D01*
G75*
G02*
X123145000Y-110278800I0J-28800D01*
G01*
X123145000Y-110701200D01*
G75*
G02*
X123116200Y-110730000I-28800J0D01*
G01*
X121703800Y-110730000D01*
G75*
G02*
X121675000Y-110701200I0J28800D01*
G01*
G37*
%TD.AperFunction*%
%TO.P,U2,8*%
%TO.N,CS_X*%
%TA.AperFunction,SMDPad,CuDef*%
G36*
G01*
X121675000Y-110051200D02*
X121675000Y-109628800D01*
G75*
G02*
X121703800Y-109600000I28800J0D01*
G01*
X123116200Y-109600000D01*
G75*
G02*
X123145000Y-109628800I0J-28800D01*
G01*
X123145000Y-110051200D01*
G75*
G02*
X123116200Y-110080000I-28800J0D01*
G01*
X121703800Y-110080000D01*
G75*
G02*
X121675000Y-110051200I0J28800D01*
G01*
G37*
%TD.AperFunction*%
%TD*%
%TO.P,U3,1*%
%TO.N,VOUT_Y_P*%
%TA.AperFunction,SMDPad,CuDef*%
G36*
G01*
X130911000Y-120019000D02*
X130911000Y-119503000D01*
G75*
G02*
X130953000Y-119461000I42000J0D01*
G01*
X132839000Y-119461000D01*
G75*
G02*
X132881000Y-119503000I0J-42000D01*
G01*
X132881000Y-120019000D01*
G75*
G02*
X132839000Y-120061000I-42000J0D01*
G01*
X130953000Y-120061000D01*
G75*
G02*
X130911000Y-120019000I0J42000D01*
G01*
G37*
%TD.AperFunction*%
%TO.P,U3,2*%
%TO.N,Net-(U1-Pad3)*%
%TA.AperFunction,SMDPad,CuDef*%
G36*
G01*
X130911000Y-121289000D02*
X130911000Y-120773000D01*
G75*
G02*
X130953000Y-120731000I42000J0D01*
G01*
X132839000Y-120731000D01*
G75*
G02*
X132881000Y-120773000I0J-42000D01*
G01*
X132881000Y-121289000D01*
G75*
G02*
X132839000Y-121331000I-42000J0D01*
G01*
X130953000Y-121331000D01*
G75*
G02*
X130911000Y-121289000I0J42000D01*
G01*
G37*
%TD.AperFunction*%
%TO.P,U3,3*%
%TO.N,GND1*%
%TA.AperFunction,SMDPad,CuDef*%
G36*
G01*
X130911000Y-122559000D02*
X130911000Y-122043000D01*
G75*
G02*
X130953000Y-122001000I42000J0D01*
G01*
X132839000Y-122001000D01*
G75*
G02*
X132881000Y-122043000I0J-42000D01*
G01*
X132881000Y-122559000D01*
G75*
G02*
X132839000Y-122601000I-42000J0D01*
G01*
X130953000Y-122601000D01*
G75*
G02*
X130911000Y-122559000I0J42000D01*
G01*
G37*
%TD.AperFunction*%
%TO.P,U3,4*%
%TO.N,OPAMP_N*%
%TA.AperFunction,SMDPad,CuDef*%
G36*
G01*
X130911000Y-123829000D02*
X130911000Y-123313000D01*
G75*
G02*
X130953000Y-123271000I42000J0D01*
G01*
X132839000Y-123271000D01*
G75*
G02*
X132881000Y-123313000I0J-42000D01*
G01*
X132881000Y-123829000D01*
G75*
G02*
X132839000Y-123871000I-42000J0D01*
G01*
X130953000Y-123871000D01*
G75*
G02*
X130911000Y-123829000I0J42000D01*
G01*
G37*
%TD.AperFunction*%
%TO.P,U3,5*%
%TO.N,GND1*%
%TA.AperFunction,SMDPad,CuDef*%
G36*
G01*
X135851000Y-123829000D02*
X135851000Y-123313000D01*
G75*
G02*
X135893000Y-123271000I42000J0D01*
G01*
X137779000Y-123271000D01*
G75*
G02*
X137821000Y-123313000I0J-42000D01*
G01*
X137821000Y-123829000D01*
G75*
G02*
X137779000Y-123871000I-42000J0D01*
G01*
X135893000Y-123871000D01*
G75*
G02*
X135851000Y-123829000I0J42000D01*
G01*
G37*
%TD.AperFunction*%
%TO.P,U3,6*%
%TO.N,Net-(R1-Pad2)*%
%TA.AperFunction,SMDPad,CuDef*%
G36*
G01*
X135851000Y-122559000D02*
X135851000Y-122043000D01*
G75*
G02*
X135893000Y-122001000I42000J0D01*
G01*
X137779000Y-122001000D01*
G75*
G02*
X137821000Y-122043000I0J-42000D01*
G01*
X137821000Y-122559000D01*
G75*
G02*
X137779000Y-122601000I-42000J0D01*
G01*
X135893000Y-122601000D01*
G75*
G02*
X135851000Y-122559000I0J42000D01*
G01*
G37*
%TD.AperFunction*%
%TO.P,U3,7*%
%TO.N,VOUT_Y_N*%
%TA.AperFunction,SMDPad,CuDef*%
G36*
G01*
X135851000Y-121289000D02*
X135851000Y-120773000D01*
G75*
G02*
X135893000Y-120731000I42000J0D01*
G01*
X137779000Y-120731000D01*
G75*
G02*
X137821000Y-120773000I0J-42000D01*
G01*
X137821000Y-121289000D01*
G75*
G02*
X137779000Y-121331000I-42000J0D01*
G01*
X135893000Y-121331000D01*
G75*
G02*
X135851000Y-121289000I0J42000D01*
G01*
G37*
%TD.AperFunction*%
%TO.P,U3,8*%
%TO.N,OPAMP_P*%
%TA.AperFunction,SMDPad,CuDef*%
G36*
G01*
X135851000Y-120019000D02*
X135851000Y-119503000D01*
G75*
G02*
X135893000Y-119461000I42000J0D01*
G01*
X137779000Y-119461000D01*
G75*
G02*
X137821000Y-119503000I0J-42000D01*
G01*
X137821000Y-120019000D01*
G75*
G02*
X137779000Y-120061000I-42000J0D01*
G01*
X135893000Y-120061000D01*
G75*
G02*
X135851000Y-120019000I0J42000D01*
G01*
G37*
%TD.AperFunction*%
%TD*%
%TO.P,U4,8*%
%TO.N,OPAMP_P*%
%TA.AperFunction,SMDPad,CuDef*%
G36*
G01*
X136105000Y-109605000D02*
X136105000Y-109089000D01*
G75*
G02*
X136147000Y-109047000I42000J0D01*
G01*
X138033000Y-109047000D01*
G75*
G02*
X138075000Y-109089000I0J-42000D01*
G01*
X138075000Y-109605000D01*
G75*
G02*
X138033000Y-109647000I-42000J0D01*
G01*
X136147000Y-109647000D01*
G75*
G02*
X136105000Y-109605000I0J42000D01*
G01*
G37*
%TD.AperFunction*%
%TO.P,U4,7*%
%TO.N,VOUT_X_N*%
%TA.AperFunction,SMDPad,CuDef*%
G36*
G01*
X136105000Y-110875000D02*
X136105000Y-110359000D01*
G75*
G02*
X136147000Y-110317000I42000J0D01*
G01*
X138033000Y-110317000D01*
G75*
G02*
X138075000Y-110359000I0J-42000D01*
G01*
X138075000Y-110875000D01*
G75*
G02*
X138033000Y-110917000I-42000J0D01*
G01*
X136147000Y-110917000D01*
G75*
G02*
X136105000Y-110875000I0J42000D01*
G01*
G37*
%TD.AperFunction*%
%TO.P,U4,6*%
%TO.N,Net-(R3-Pad2)*%
%TA.AperFunction,SMDPad,CuDef*%
G36*
G01*
X136105000Y-112145000D02*
X136105000Y-111629000D01*
G75*
G02*
X136147000Y-111587000I42000J0D01*
G01*
X138033000Y-111587000D01*
G75*
G02*
X138075000Y-111629000I0J-42000D01*
G01*
X138075000Y-112145000D01*
G75*
G02*
X138033000Y-112187000I-42000J0D01*
G01*
X136147000Y-112187000D01*
G75*
G02*
X136105000Y-112145000I0J42000D01*
G01*
G37*
%TD.AperFunction*%
%TO.P,U4,5*%
%TO.N,GND1*%
%TA.AperFunction,SMDPad,CuDef*%
G36*
G01*
X136105000Y-113415000D02*
X136105000Y-112899000D01*
G75*
G02*
X136147000Y-112857000I42000J0D01*
G01*
X138033000Y-112857000D01*
G75*
G02*
X138075000Y-112899000I0J-42000D01*
G01*
X138075000Y-113415000D01*
G75*
G02*
X138033000Y-113457000I-42000J0D01*
G01*
X136147000Y-113457000D01*
G75*
G02*
X136105000Y-113415000I0J42000D01*
G01*
G37*
%TD.AperFunction*%
%TO.P,U4,4*%
%TO.N,OPAMP_N*%
%TA.AperFunction,SMDPad,CuDef*%
G36*
G01*
X131165000Y-113415000D02*
X131165000Y-112899000D01*
G75*
G02*
X131207000Y-112857000I42000J0D01*
G01*
X133093000Y-112857000D01*
G75*
G02*
X133135000Y-112899000I0J-42000D01*
G01*
X133135000Y-113415000D01*
G75*
G02*
X133093000Y-113457000I-42000J0D01*
G01*
X131207000Y-113457000D01*
G75*
G02*
X131165000Y-113415000I0J42000D01*
G01*
G37*
%TD.AperFunction*%
%TO.P,U4,3*%
%TO.N,GND1*%
%TA.AperFunction,SMDPad,CuDef*%
G36*
G01*
X131165000Y-112145000D02*
X131165000Y-111629000D01*
G75*
G02*
X131207000Y-111587000I42000J0D01*
G01*
X133093000Y-111587000D01*
G75*
G02*
X133135000Y-111629000I0J-42000D01*
G01*
X133135000Y-112145000D01*
G75*
G02*
X133093000Y-112187000I-42000J0D01*
G01*
X131207000Y-112187000D01*
G75*
G02*
X131165000Y-112145000I0J42000D01*
G01*
G37*
%TD.AperFunction*%
%TO.P,U4,2*%
%TO.N,Net-(U2-Pad3)*%
%TA.AperFunction,SMDPad,CuDef*%
G36*
G01*
X131165000Y-110875000D02*
X131165000Y-110359000D01*
G75*
G02*
X131207000Y-110317000I42000J0D01*
G01*
X133093000Y-110317000D01*
G75*
G02*
X133135000Y-110359000I0J-42000D01*
G01*
X133135000Y-110875000D01*
G75*
G02*
X133093000Y-110917000I-42000J0D01*
G01*
X131207000Y-110917000D01*
G75*
G02*
X131165000Y-110875000I0J42000D01*
G01*
G37*
%TD.AperFunction*%
%TO.P,U4,1*%
%TO.N,VOUT_X_P*%
%TA.AperFunction,SMDPad,CuDef*%
G36*
G01*
X131165000Y-109605000D02*
X131165000Y-109089000D01*
G75*
G02*
X131207000Y-109047000I42000J0D01*
G01*
X133093000Y-109047000D01*
G75*
G02*
X133135000Y-109089000I0J-42000D01*
G01*
X133135000Y-109605000D01*
G75*
G02*
X133093000Y-109647000I-42000J0D01*
G01*
X131207000Y-109647000D01*
G75*
G02*
X131165000Y-109605000I0J42000D01*
G01*
G37*
%TD.AperFunction*%
%TD*%
%TO.P,U5,1*%
%TO.N,Vref_x*%
%TA.AperFunction,SMDPad,CuDef*%
G36*
G01*
X115417000Y-122051000D02*
X115417000Y-121535000D01*
G75*
G02*
X115459000Y-121493000I42000J0D01*
G01*
X117345000Y-121493000D01*
G75*
G02*
X117387000Y-121535000I0J-42000D01*
G01*
X117387000Y-122051000D01*
G75*
G02*
X117345000Y-122093000I-42000J0D01*
G01*
X115459000Y-122093000D01*
G75*
G02*
X115417000Y-122051000I0J42000D01*
G01*
G37*
%TD.AperFunction*%
%TO.P,U5,2*%
%TA.AperFunction,SMDPad,CuDef*%
G36*
G01*
X115417000Y-123321000D02*
X115417000Y-122805000D01*
G75*
G02*
X115459000Y-122763000I42000J0D01*
G01*
X117345000Y-122763000D01*
G75*
G02*
X117387000Y-122805000I0J-42000D01*
G01*
X117387000Y-123321000D01*
G75*
G02*
X117345000Y-123363000I-42000J0D01*
G01*
X115459000Y-123363000D01*
G75*
G02*
X115417000Y-123321000I0J42000D01*
G01*
G37*
%TD.AperFunction*%
%TO.P,U5,3*%
%TO.N,5V*%
%TA.AperFunction,SMDPad,CuDef*%
G36*
G01*
X115417000Y-124591000D02*
X115417000Y-124075000D01*
G75*
G02*
X115459000Y-124033000I42000J0D01*
G01*
X117345000Y-124033000D01*
G75*
G02*
X117387000Y-124075000I0J-42000D01*
G01*
X117387000Y-124591000D01*
G75*
G02*
X117345000Y-124633000I-42000J0D01*
G01*
X115459000Y-124633000D01*
G75*
G02*
X115417000Y-124591000I0J42000D01*
G01*
G37*
%TD.AperFunction*%
%TO.P,U5,4*%
%TO.N,OPAMP_N*%
%TA.AperFunction,SMDPad,CuDef*%
G36*
G01*
X115417000Y-125861000D02*
X115417000Y-125345000D01*
G75*
G02*
X115459000Y-125303000I42000J0D01*
G01*
X117345000Y-125303000D01*
G75*
G02*
X117387000Y-125345000I0J-42000D01*
G01*
X117387000Y-125861000D01*
G75*
G02*
X117345000Y-125903000I-42000J0D01*
G01*
X115459000Y-125903000D01*
G75*
G02*
X115417000Y-125861000I0J42000D01*
G01*
G37*
%TD.AperFunction*%
%TO.P,U5,5*%
%TO.N,5V*%
%TA.AperFunction,SMDPad,CuDef*%
G36*
G01*
X120357000Y-125861000D02*
X120357000Y-125345000D01*
G75*
G02*
X120399000Y-125303000I42000J0D01*
G01*
X122285000Y-125303000D01*
G75*
G02*
X122327000Y-125345000I0J-42000D01*
G01*
X122327000Y-125861000D01*
G75*
G02*
X122285000Y-125903000I-42000J0D01*
G01*
X120399000Y-125903000D01*
G75*
G02*
X120357000Y-125861000I0J42000D01*
G01*
G37*
%TD.AperFunction*%
%TO.P,U5,6*%
%TO.N,Vref_y*%
%TA.AperFunction,SMDPad,CuDef*%
G36*
G01*
X120357000Y-124591000D02*
X120357000Y-124075000D01*
G75*
G02*
X120399000Y-124033000I42000J0D01*
G01*
X122285000Y-124033000D01*
G75*
G02*
X122327000Y-124075000I0J-42000D01*
G01*
X122327000Y-124591000D01*
G75*
G02*
X122285000Y-124633000I-42000J0D01*
G01*
X120399000Y-124633000D01*
G75*
G02*
X120357000Y-124591000I0J42000D01*
G01*
G37*
%TD.AperFunction*%
%TO.P,U5,7*%
%TA.AperFunction,SMDPad,CuDef*%
G36*
G01*
X120357000Y-123321000D02*
X120357000Y-122805000D01*
G75*
G02*
X120399000Y-122763000I42000J0D01*
G01*
X122285000Y-122763000D01*
G75*
G02*
X122327000Y-122805000I0J-42000D01*
G01*
X122327000Y-123321000D01*
G75*
G02*
X122285000Y-123363000I-42000J0D01*
G01*
X120399000Y-123363000D01*
G75*
G02*
X120357000Y-123321000I0J42000D01*
G01*
G37*
%TD.AperFunction*%
%TO.P,U5,8*%
%TO.N,OPAMP_P*%
%TA.AperFunction,SMDPad,CuDef*%
G36*
G01*
X120357000Y-122051000D02*
X120357000Y-121535000D01*
G75*
G02*
X120399000Y-121493000I42000J0D01*
G01*
X122285000Y-121493000D01*
G75*
G02*
X122327000Y-121535000I0J-42000D01*
G01*
X122327000Y-122051000D01*
G75*
G02*
X122285000Y-122093000I-42000J0D01*
G01*
X120399000Y-122093000D01*
G75*
G02*
X120357000Y-122051000I0J42000D01*
G01*
G37*
%TD.AperFunction*%
%TD*%
%TO.P,C11,2*%
%TO.N,GND1*%
%TA.AperFunction,SMDPad,CuDef*%
G36*
G01*
X115840500Y-113455500D02*
X116315500Y-113455500D01*
G75*
G02*
X116553000Y-113693000I0J-237500D01*
G01*
X116553000Y-114293000D01*
G75*
G02*
X116315500Y-114530500I-237500J0D01*
G01*
X115840500Y-114530500D01*
G75*
G02*
X115603000Y-114293000I0J237500D01*
G01*
X115603000Y-113693000D01*
G75*
G02*
X115840500Y-113455500I237500J0D01*
G01*
G37*
%TD.AperFunction*%
%TO.P,C11,1*%
%TO.N,Vref_x*%
%TA.AperFunction,SMDPad,CuDef*%
G36*
G01*
X115840500Y-111730500D02*
X116315500Y-111730500D01*
G75*
G02*
X116553000Y-111968000I0J-237500D01*
G01*
X116553000Y-112568000D01*
G75*
G02*
X116315500Y-112805500I-237500J0D01*
G01*
X115840500Y-112805500D01*
G75*
G02*
X115603000Y-112568000I0J237500D01*
G01*
X115603000Y-111968000D01*
G75*
G02*
X115840500Y-111730500I237500J0D01*
G01*
G37*
%TD.AperFunction*%
%TD*%
%TO.P,C12,1*%
%TO.N,Vref_y*%
%TA.AperFunction,SMDPad,CuDef*%
G36*
G01*
X115840500Y-117218000D02*
X116315500Y-117218000D01*
G75*
G02*
X116553000Y-117455500I0J-237500D01*
G01*
X116553000Y-118055500D01*
G75*
G02*
X116315500Y-118293000I-237500J0D01*
G01*
X115840500Y-118293000D01*
G75*
G02*
X115603000Y-118055500I0J237500D01*
G01*
X115603000Y-117455500D01*
G75*
G02*
X115840500Y-117218000I237500J0D01*
G01*
G37*
%TD.AperFunction*%
%TO.P,C12,2*%
%TO.N,GND1*%
%TA.AperFunction,SMDPad,CuDef*%
G36*
G01*
X115840500Y-118943000D02*
X116315500Y-118943000D01*
G75*
G02*
X116553000Y-119180500I0J-237500D01*
G01*
X116553000Y-119780500D01*
G75*
G02*
X116315500Y-120018000I-237500J0D01*
G01*
X115840500Y-120018000D01*
G75*
G02*
X115603000Y-119780500I0J237500D01*
G01*
X115603000Y-119180500D01*
G75*
G02*
X115840500Y-118943000I237500J0D01*
G01*
G37*
%TD.AperFunction*%
%TD*%
%TO.P,C13,1*%
%TO.N,Vref_x*%
%TA.AperFunction,SMDPad,CuDef*%
G36*
G01*
X117560001Y-113251001D02*
X117560001Y-113051001D01*
G75*
G02*
X117660001Y-112951001I100000J0D01*
G01*
X118095001Y-112951001D01*
G75*
G02*
X118195001Y-113051001I0J-100000D01*
G01*
X118195001Y-113251001D01*
G75*
G02*
X118095001Y-113351001I-100000J0D01*
G01*
X117660001Y-113351001D01*
G75*
G02*
X117560001Y-113251001I0J100000D01*
G01*
G37*
%TD.AperFunction*%
%TO.P,C13,2*%
%TO.N,GND1*%
%TA.AperFunction,SMDPad,CuDef*%
G36*
G01*
X118375001Y-113251001D02*
X118375001Y-113051001D01*
G75*
G02*
X118475001Y-112951001I100000J0D01*
G01*
X118910001Y-112951001D01*
G75*
G02*
X119010001Y-113051001I0J-100000D01*
G01*
X119010001Y-113251001D01*
G75*
G02*
X118910001Y-113351001I-100000J0D01*
G01*
X118475001Y-113351001D01*
G75*
G02*
X118375001Y-113251001I0J100000D01*
G01*
G37*
%TD.AperFunction*%
%TD*%
%TO.P,C14,1*%
%TO.N,Vref_y*%
%TA.AperFunction,SMDPad,CuDef*%
G36*
G01*
X117385000Y-118972000D02*
X117385000Y-118772000D01*
G75*
G02*
X117485000Y-118672000I100000J0D01*
G01*
X117920000Y-118672000D01*
G75*
G02*
X118020000Y-118772000I0J-100000D01*
G01*
X118020000Y-118972000D01*
G75*
G02*
X117920000Y-119072000I-100000J0D01*
G01*
X117485000Y-119072000D01*
G75*
G02*
X117385000Y-118972000I0J100000D01*
G01*
G37*
%TD.AperFunction*%
%TO.P,C14,2*%
%TO.N,GND1*%
%TA.AperFunction,SMDPad,CuDef*%
G36*
G01*
X118200000Y-118972000D02*
X118200000Y-118772000D01*
G75*
G02*
X118300000Y-118672000I100000J0D01*
G01*
X118735000Y-118672000D01*
G75*
G02*
X118835000Y-118772000I0J-100000D01*
G01*
X118835000Y-118972000D01*
G75*
G02*
X118735000Y-119072000I-100000J0D01*
G01*
X118300000Y-119072000D01*
G75*
G02*
X118200000Y-118972000I0J100000D01*
G01*
G37*
%TD.AperFunction*%
%TD*%
%TO.P,C15,2*%
%TO.N,GND1*%
%TA.AperFunction,SMDPad,CuDef*%
G36*
G01*
X118300500Y-114146000D02*
X118300500Y-113946000D01*
G75*
G02*
X118400500Y-113846000I100000J0D01*
G01*
X118835500Y-113846000D01*
G75*
G02*
X118935500Y-113946000I0J-100000D01*
G01*
X118935500Y-114146000D01*
G75*
G02*
X118835500Y-114246000I-100000J0D01*
G01*
X118400500Y-114246000D01*
G75*
G02*
X118300500Y-114146000I0J100000D01*
G01*
G37*
%TD.AperFunction*%
%TO.P,C15,1*%
%TO.N,Vref_x*%
%TA.AperFunction,SMDPad,CuDef*%
G36*
G01*
X117485500Y-114146000D02*
X117485500Y-113946000D01*
G75*
G02*
X117585500Y-113846000I100000J0D01*
G01*
X118020500Y-113846000D01*
G75*
G02*
X118120500Y-113946000I0J-100000D01*
G01*
X118120500Y-114146000D01*
G75*
G02*
X118020500Y-114246000I-100000J0D01*
G01*
X117585500Y-114246000D01*
G75*
G02*
X117485500Y-114146000I0J100000D01*
G01*
G37*
%TD.AperFunction*%
%TD*%
%TO.P,C16,2*%
%TO.N,GND1*%
%TA.AperFunction,SMDPad,CuDef*%
G36*
G01*
X118200000Y-119988000D02*
X118200000Y-119788000D01*
G75*
G02*
X118300000Y-119688000I100000J0D01*
G01*
X118735000Y-119688000D01*
G75*
G02*
X118835000Y-119788000I0J-100000D01*
G01*
X118835000Y-119988000D01*
G75*
G02*
X118735000Y-120088000I-100000J0D01*
G01*
X118300000Y-120088000D01*
G75*
G02*
X118200000Y-119988000I0J100000D01*
G01*
G37*
%TD.AperFunction*%
%TO.P,C16,1*%
%TO.N,Vref_y*%
%TA.AperFunction,SMDPad,CuDef*%
G36*
G01*
X117385000Y-119988000D02*
X117385000Y-119788000D01*
G75*
G02*
X117485000Y-119688000I100000J0D01*
G01*
X117920000Y-119688000D01*
G75*
G02*
X118020000Y-119788000I0J-100000D01*
G01*
X118020000Y-119988000D01*
G75*
G02*
X117920000Y-120088000I-100000J0D01*
G01*
X117485000Y-120088000D01*
G75*
G02*
X117385000Y-119988000I0J100000D01*
G01*
G37*
%TD.AperFunction*%
%TD*%
D13*
%TO.P,J2,1*%
%TO.N,OPAMP_P*%
X140970000Y-100330000D03*
D14*
%TO.P,J2,2*%
%TO.N,OPAMP_N*%
X135970000Y-100330000D03*
%TO.P,J2,3*%
%TO.N,GND1*%
X130970000Y-100330000D03*
%TD*%
D15*
%TO.P,H1,1*%
%TO.N,GND1*%
X125730000Y-123952000D03*
%TD*%
D16*
%TO.N,OPAMP_P*%
X135128000Y-116167990D03*
X136144000Y-117617990D03*
X136144000Y-108458000D03*
%TO.N,GND1*%
X125222000Y-117993743D03*
X125222000Y-113792000D03*
X128663028Y-111982847D03*
X116840000Y-120650000D03*
X119380000Y-118872000D03*
%TO.N,OPAMP_N*%
X129794000Y-115442990D03*
X132080000Y-125984000D03*
X128270000Y-106680000D03*
%TO.N,SCLK*%
X113538000Y-110490000D03*
X116844653Y-115311347D03*
%TO.N,CS_Y*%
X114808000Y-116586000D03*
X119634000Y-116078000D03*
%TO.N,Net-(U1-Pad3)*%
X124074752Y-117993742D03*
X130048000Y-121158000D03*
%TO.N,Net-(U2-Pad3)*%
X123698000Y-112268000D03*
X130302000Y-110744000D03*
%TO.N,Vref_x*%
X119888000Y-119888000D03*
X119629347Y-115057347D03*
%TO.N,Vref_y*%
X119888000Y-122936000D03*
X117851347Y-120899347D03*
%TD*%
D17*
%TO.N,OPAMP_P*%
X139165500Y-109347000D02*
X139446000Y-109066500D01*
X137090000Y-109347000D02*
X139165500Y-109347000D01*
X136853000Y-109110000D02*
X136853000Y-107696000D01*
X137090000Y-109347000D02*
X136853000Y-109110000D01*
X137116500Y-119480500D02*
X136836000Y-119761000D01*
X139192000Y-119480500D02*
X137116500Y-119480500D01*
X136836000Y-118193500D02*
X136752500Y-118110000D01*
X136836000Y-119761000D02*
X136836000Y-118193500D01*
X124968000Y-100076000D02*
X127488020Y-102596020D01*
X129588430Y-116167990D02*
X135128000Y-116167990D01*
X127488019Y-118268401D02*
X129588430Y-116167990D01*
X136260490Y-117617990D02*
X136752500Y-118110000D01*
X136144000Y-117617990D02*
X136260490Y-117617990D01*
X136144000Y-108405000D02*
X136853000Y-107696000D01*
X136144000Y-108458000D02*
X136144000Y-108405000D01*
X134935041Y-98704999D02*
X127488020Y-106152020D01*
X139344999Y-98704999D02*
X134935041Y-98704999D01*
X140970000Y-100330000D02*
X139344999Y-98704999D01*
X127488020Y-106152020D02*
X127488019Y-118268401D01*
X127488020Y-102596020D02*
X127488020Y-106152020D01*
X124629421Y-121126999D02*
X127488019Y-118268401D01*
X122008001Y-121126999D02*
X124629421Y-121126999D01*
X121342000Y-121793000D02*
X122008001Y-121126999D01*
%TO.N,GND1*%
X118517500Y-119888000D02*
X118517500Y-118872000D01*
X125423000Y-111606500D02*
X124968000Y-111151500D01*
X126238000Y-111606500D02*
X125423000Y-111606500D01*
X124968000Y-111151500D02*
X123952000Y-111151500D01*
X122421500Y-111151500D02*
X122410000Y-111140000D01*
X123952000Y-111151500D02*
X122421500Y-111151500D01*
X125523500Y-117549000D02*
X124968000Y-116993500D01*
X126238000Y-117549000D02*
X125523500Y-117549000D01*
X124968000Y-116993500D02*
X123952000Y-116993500D01*
X123828500Y-116870000D02*
X122428000Y-116870000D01*
X123952000Y-116993500D02*
X123828500Y-116870000D01*
X118618000Y-113225502D02*
X118692501Y-113151001D01*
X118618000Y-114046000D02*
X118618000Y-113225502D01*
X130429000Y-111887000D02*
X129794000Y-112522000D01*
X132150000Y-111887000D02*
X130429000Y-111887000D01*
X139091500Y-107696000D02*
X139446000Y-107341500D01*
X137668000Y-107696000D02*
X139091500Y-107696000D01*
X139192000Y-117856000D02*
X142494000Y-121158000D01*
X139192000Y-117755500D02*
X139192000Y-117856000D01*
X138837500Y-118110000D02*
X139192000Y-117755500D01*
X137567500Y-118110000D02*
X138837500Y-118110000D01*
X135439000Y-124968000D02*
X136836000Y-123571000D01*
X132233500Y-124968000D02*
X135439000Y-124968000D01*
X130074500Y-122301000D02*
X129540000Y-122835500D01*
X131896000Y-122301000D02*
X130074500Y-122301000D01*
X139446000Y-107696000D02*
X142494000Y-110744000D01*
X139446000Y-107341500D02*
X139446000Y-107696000D01*
X135693000Y-114554000D02*
X137090000Y-113157000D01*
X132487500Y-114554000D02*
X135693000Y-114554000D01*
X134405000Y-113157000D02*
X137090000Y-113157000D01*
X133135000Y-111887000D02*
X134405000Y-113157000D01*
X132150000Y-111887000D02*
X133135000Y-111887000D01*
X134581000Y-122301000D02*
X131896000Y-122301000D01*
X135851000Y-123571000D02*
X134581000Y-122301000D01*
X136836000Y-123571000D02*
X135851000Y-123571000D01*
X143669001Y-122333001D02*
X142494000Y-121158000D01*
X143669001Y-124262001D02*
X143669001Y-122333001D01*
X143058001Y-124873001D02*
X143669001Y-124262001D01*
X138138001Y-124873001D02*
X143058001Y-124873001D01*
X136836000Y-123571000D02*
X138138001Y-124873001D01*
X143058001Y-114459001D02*
X143669001Y-113848001D01*
X138392001Y-114459001D02*
X143058001Y-114459001D01*
X143669001Y-111919001D02*
X142494000Y-110744000D01*
X143669001Y-113848001D02*
X143669001Y-111919001D01*
X137090000Y-113157000D02*
X138392001Y-114459001D01*
X128640999Y-98000999D02*
X130970000Y-100330000D01*
X112819001Y-98000999D02*
X128640999Y-98000999D01*
X111150990Y-99669010D02*
X112819001Y-98000999D01*
X111150990Y-123342990D02*
X111150990Y-99669010D01*
X112776000Y-124968000D02*
X111150990Y-123342990D01*
X125666743Y-117549000D02*
X125222000Y-117993743D01*
X126238000Y-117549000D02*
X125666743Y-117549000D01*
X126238000Y-112776000D02*
X125222000Y-113792000D01*
X126238000Y-111606500D02*
X126238000Y-112776000D01*
X122993002Y-114046000D02*
X118618000Y-114046000D01*
X123247002Y-113792000D02*
X122993002Y-114046000D01*
X125222000Y-113792000D02*
X123247002Y-113792000D01*
X129202181Y-112522000D02*
X128663028Y-111982847D01*
X129794000Y-112522000D02*
X129202181Y-112522000D01*
X143669001Y-115070001D02*
X143058001Y-114459001D01*
X143669001Y-119982999D02*
X143669001Y-115070001D01*
X142494000Y-121158000D02*
X143669001Y-119982999D01*
X116078000Y-119888000D02*
X116840000Y-120650000D01*
X116078000Y-119480500D02*
X116078000Y-119888000D01*
X119380000Y-118872000D02*
X118517500Y-118872000D01*
X126846500Y-122835500D02*
X125730000Y-123952000D01*
X129540000Y-122835500D02*
X126846500Y-122835500D01*
%TO.N,OPAMP_N*%
X131672500Y-113634500D02*
X131672500Y-114554000D01*
X132150000Y-113157000D02*
X131672500Y-113634500D01*
X130529500Y-123571000D02*
X129540000Y-124560500D01*
X131896000Y-123571000D02*
X130529500Y-123571000D01*
X131418500Y-124048500D02*
X131896000Y-123571000D01*
X131418500Y-124968000D02*
X131418500Y-124048500D01*
X127938028Y-108361972D02*
X127938028Y-112391028D01*
X130101000Y-114554000D02*
X131672500Y-114554000D01*
X127938028Y-112391028D02*
X130101000Y-114554000D01*
X129794000Y-114247000D02*
X129794000Y-115442990D01*
X131418500Y-125322500D02*
X131418500Y-124968000D01*
X132080000Y-125984000D02*
X131418500Y-125322500D01*
X128270000Y-107950000D02*
X128310000Y-107990000D01*
X128270000Y-106680000D02*
X128270000Y-107950000D01*
X128310000Y-107990000D02*
X127938028Y-108361972D01*
X135970000Y-100330000D02*
X128310000Y-107990000D01*
X117576001Y-126777001D02*
X116402000Y-125603000D01*
X127323499Y-126777001D02*
X117576001Y-126777001D01*
X132080000Y-125984000D02*
X128270000Y-125984000D01*
X128270000Y-125984000D02*
X128193250Y-125907250D01*
X128193250Y-125907250D02*
X127323499Y-126777001D01*
X129540000Y-124560500D02*
X128193250Y-125907250D01*
%TO.N,DVDD*%
X125423000Y-109881500D02*
X124968000Y-110336500D01*
X126238000Y-109881500D02*
X125423000Y-109881500D01*
X124968000Y-110336500D02*
X123952000Y-110336500D01*
X123798500Y-110490000D02*
X122410000Y-110490000D01*
X123952000Y-110336500D02*
X123798500Y-110490000D01*
X125322500Y-115824000D02*
X124968000Y-116178500D01*
X126238000Y-115824000D02*
X125322500Y-115824000D01*
X124968000Y-116178500D02*
X123952000Y-116178500D01*
X122469500Y-116178500D02*
X122428000Y-116220000D01*
X123952000Y-116178500D02*
X122469500Y-116178500D01*
X115306980Y-123688010D02*
X117726960Y-123688010D01*
X115091990Y-123473020D02*
X115306980Y-123688010D01*
X115091990Y-122203990D02*
X115091990Y-123473020D01*
X112776000Y-119888000D02*
X115091990Y-122203990D01*
X127038010Y-110681510D02*
X126238000Y-109881500D01*
X127038010Y-115023990D02*
X127038010Y-110681510D01*
X126238000Y-115824000D02*
X127038010Y-115023990D01*
X127038010Y-118082000D02*
X127038010Y-116624010D01*
X126401267Y-118718743D02*
X127038010Y-118082000D01*
X127038010Y-116624010D02*
X126238000Y-115824000D01*
X122696227Y-118718743D02*
X126401267Y-118718743D01*
X117726960Y-123688010D02*
X122696227Y-118718743D01*
%TO.N,SCLK*%
X117998000Y-109728000D02*
X118110000Y-109840000D01*
X112776000Y-109728000D02*
X117998000Y-109728000D01*
X112776000Y-109728000D02*
X113538000Y-110490000D01*
X118110000Y-115552000D02*
X118128000Y-115570000D01*
X117869347Y-115311347D02*
X118128000Y-115570000D01*
X116844653Y-115311347D02*
X117869347Y-115311347D01*
%TO.N,SDIN*%
X116728000Y-116220000D02*
X112776000Y-112268000D01*
X118128000Y-116220000D02*
X116728000Y-116220000D01*
X117342234Y-110490000D02*
X118110000Y-110490000D01*
X116492244Y-111339990D02*
X117342234Y-110490000D01*
X113704010Y-111339990D02*
X116492244Y-111339990D01*
X112776000Y-112268000D02*
X113704010Y-111339990D01*
%TO.N,CS_X*%
X121122999Y-108552999D02*
X122410000Y-109840000D01*
X111665999Y-108552999D02*
X121122999Y-108552999D01*
X111600999Y-113632999D02*
X111600999Y-108617999D01*
X111600999Y-108617999D02*
X111665999Y-108552999D01*
X112776000Y-114808000D02*
X111600999Y-113632999D01*
%TO.N,CS_Y*%
X112776000Y-117511510D02*
X112776000Y-117348000D01*
X114046000Y-117348000D02*
X114808000Y-116586000D01*
X112776000Y-117348000D02*
X114046000Y-117348000D01*
X120142000Y-115570000D02*
X122428000Y-115570000D01*
X119634000Y-116078000D02*
X120142000Y-115570000D01*
%TO.N,VOUT_Y_P*%
X133547000Y-118110000D02*
X133768500Y-118110000D01*
X131896000Y-119761000D02*
X133547000Y-118110000D01*
X134665510Y-116892990D02*
X140768990Y-116892990D01*
X133768500Y-117790000D02*
X134665510Y-116892990D01*
X140768990Y-116892990D02*
X142494000Y-118618000D01*
X133768500Y-118110000D02*
X133768500Y-117790000D01*
%TO.N,VOUT_Y_N*%
X139954000Y-121158000D02*
X142494000Y-123698000D01*
X138938000Y-121158000D02*
X139954000Y-121158000D01*
X136963000Y-121158000D02*
X136836000Y-121031000D01*
X138938000Y-121158000D02*
X136963000Y-121158000D01*
%TO.N,VOUT_X_N*%
X139065000Y-110617000D02*
X139192000Y-110744000D01*
X137090000Y-110617000D02*
X139065000Y-110617000D01*
X139954000Y-110744000D02*
X142494000Y-113284000D01*
X139192000Y-110744000D02*
X139954000Y-110744000D01*
%TO.N,VOUT_X_P*%
X133801000Y-107696000D02*
X132150000Y-109347000D01*
X134022500Y-107696000D02*
X133801000Y-107696000D01*
X135239510Y-106478990D02*
X134022500Y-107696000D01*
X140768990Y-106478990D02*
X135239510Y-106478990D01*
X142494000Y-108204000D02*
X140768990Y-106478990D01*
%TO.N,Net-(R1-Pad2)*%
X136385970Y-122301000D02*
X136836000Y-122301000D01*
X134963500Y-120878530D02*
X136385970Y-122301000D01*
X134963500Y-118110000D02*
X134963500Y-120878530D01*
X136888000Y-122353000D02*
X136836000Y-122301000D01*
X138938000Y-122353000D02*
X136888000Y-122353000D01*
%TO.N,Net-(R3-Pad2)*%
X139140000Y-111887000D02*
X139192000Y-111939000D01*
X137090000Y-111887000D02*
X139140000Y-111887000D01*
X136639970Y-111887000D02*
X137090000Y-111887000D01*
X135217500Y-110464530D02*
X136639970Y-111887000D01*
X135217500Y-107696000D02*
X135217500Y-110464530D01*
%TO.N,Net-(U1-Pad3)*%
X121660234Y-117520000D02*
X122428000Y-117520000D01*
X121010234Y-116870000D02*
X121660234Y-117520000D01*
X118128000Y-116870000D02*
X121010234Y-116870000D01*
X122901742Y-117993742D02*
X124074752Y-117993742D01*
X122428000Y-117520000D02*
X122901742Y-117993742D01*
X131769000Y-121158000D02*
X131896000Y-121031000D01*
X130048000Y-121158000D02*
X131769000Y-121158000D01*
%TO.N,Net-(U2-Pad3)*%
X119527766Y-111790000D02*
X122410000Y-111790000D01*
X118877766Y-111140000D02*
X119527766Y-111790000D01*
X118110000Y-111140000D02*
X118877766Y-111140000D01*
X123220000Y-111790000D02*
X123698000Y-112268000D01*
X122410000Y-111790000D02*
X123220000Y-111790000D01*
X132023000Y-110744000D02*
X132150000Y-110617000D01*
X130302000Y-110744000D02*
X132023000Y-110744000D01*
%TO.N,Vref_x*%
X116402000Y-123063000D02*
X116402000Y-121793000D01*
X117803000Y-114046000D02*
X117803000Y-113225502D01*
X116556000Y-111790000D02*
X116078000Y-112268000D01*
X118110000Y-111790000D02*
X116556000Y-111790000D01*
X117877501Y-112022499D02*
X118110000Y-111790000D01*
X117877501Y-113151001D02*
X117877501Y-112022499D01*
X117877501Y-113151001D02*
X117803000Y-113225502D01*
X117983000Y-121793000D02*
X119888000Y-119888000D01*
X116402000Y-121793000D02*
X117983000Y-121793000D01*
X117803000Y-114246000D02*
X117803000Y-114046000D01*
X118214348Y-114657348D02*
X117803000Y-114246000D01*
X119229348Y-114657348D02*
X118214348Y-114657348D01*
X119629347Y-115057347D02*
X119229348Y-114657348D01*
%TO.N,Vref_y*%
X117702500Y-119888000D02*
X117702500Y-118872000D01*
X121342000Y-123063000D02*
X121342000Y-124333000D01*
X116313500Y-117520000D02*
X116078000Y-117755500D01*
X118128000Y-117520000D02*
X116313500Y-117520000D01*
X117702500Y-118872000D02*
X117702500Y-118768442D01*
X117702500Y-117945500D02*
X118128000Y-117520000D01*
X117702500Y-118872000D02*
X117702500Y-117945500D01*
X120015000Y-123063000D02*
X119888000Y-122936000D01*
X121342000Y-123063000D02*
X120015000Y-123063000D01*
X117851347Y-120036847D02*
X117702500Y-119888000D01*
X117851347Y-120899347D02*
X117851347Y-120036847D01*
%TO.N,5V*%
X114681000Y-124333000D02*
X116402000Y-124333000D01*
X112776000Y-122428000D02*
X114681000Y-124333000D01*
X118657000Y-125603000D02*
X121342000Y-125603000D01*
X117387000Y-124333000D02*
X118657000Y-125603000D01*
X116402000Y-124333000D02*
X117387000Y-124333000D01*
%TD*%
M02*
