%TF.GenerationSoftware,KiCad,Pcbnew,5.1.9+dfsg1-1+deb11u1*%
%TF.CreationDate,2023-02-21T15:32:32-05:00*%
%TF.ProjectId,DAC8811-sch,44414338-3831-4312-9d73-63682e6b6963,rev?*%
%TF.SameCoordinates,Original*%
%TF.FileFunction,Legend,Top*%
%TF.FilePolarity,Positive*%
%FSLAX46Y46*%
G04 Gerber Fmt 4.6, Leading zero omitted, Abs format (unit mm)*
G04 Created by KiCad (PCBNEW 5.1.9+dfsg1-1+deb11u1) date 2023-02-21 15:32:32*
%MOMM*%
%LPD*%
G01*
G04 APERTURE LIST*
%ADD10C,0.120000*%
%ADD11C,0.200000*%
%ADD12C,0.127000*%
%ADD13C,0.150000*%
G04 APERTURE END LIST*
D10*
%TO.C,C1*%
X138936000Y-108350267D02*
X138936000Y-108057733D01*
X139956000Y-108350267D02*
X139956000Y-108057733D01*
%TO.C,C2*%
X129284000Y-113238233D02*
X129284000Y-113530767D01*
X130304000Y-113238233D02*
X130304000Y-113530767D01*
%TO.C,C5*%
X125728000Y-116540233D02*
X125728000Y-116832767D01*
X126748000Y-116540233D02*
X126748000Y-116832767D01*
%TO.C,C6*%
X126748000Y-110597733D02*
X126748000Y-110890267D01*
X125728000Y-110597733D02*
X125728000Y-110890267D01*
%TO.C,C21*%
X139702000Y-118764267D02*
X139702000Y-118471733D01*
X138682000Y-118764267D02*
X138682000Y-118471733D01*
%TO.C,C22*%
X130050000Y-123551733D02*
X130050000Y-123844267D01*
X129030000Y-123551733D02*
X129030000Y-123844267D01*
%TO.C,J1*%
X112776000Y-108398000D02*
X114106000Y-108398000D01*
X114106000Y-108398000D02*
X114106000Y-109728000D01*
X114106000Y-110998000D02*
X114106000Y-126298000D01*
X111446000Y-126298000D02*
X114106000Y-126298000D01*
X111446000Y-110998000D02*
X111446000Y-126298000D01*
X111446000Y-110998000D02*
X114106000Y-110998000D01*
%TO.C,J3*%
X125868000Y-95476000D02*
X125868000Y-98076000D01*
X111168000Y-95476000D02*
X125868000Y-95476000D01*
X125868000Y-104676000D02*
X123968000Y-104676000D01*
X125868000Y-101976000D02*
X125868000Y-104676000D01*
X111168000Y-104676000D02*
X111168000Y-95476000D01*
X119968000Y-104676000D02*
X111168000Y-104676000D01*
X125018000Y-95276000D02*
X126068000Y-95276000D01*
X126068000Y-96326000D02*
X126068000Y-95276000D01*
%TO.C,J4*%
X141164000Y-117288000D02*
X142494000Y-117288000D01*
X141164000Y-118618000D02*
X141164000Y-117288000D01*
X141164000Y-119888000D02*
X143824000Y-119888000D01*
X143824000Y-119888000D02*
X143824000Y-125028000D01*
X141164000Y-119888000D02*
X141164000Y-125028000D01*
X141164000Y-125028000D02*
X143824000Y-125028000D01*
%TO.C,J5*%
X141164000Y-114614000D02*
X143824000Y-114614000D01*
X141164000Y-109474000D02*
X141164000Y-114614000D01*
X143824000Y-109474000D02*
X143824000Y-114614000D01*
X141164000Y-109474000D02*
X143824000Y-109474000D01*
X141164000Y-108204000D02*
X141164000Y-106874000D01*
X141164000Y-106874000D02*
X142494000Y-106874000D01*
%TO.C,R1*%
X139318000Y-121587879D02*
X139318000Y-121923121D01*
X138558000Y-121587879D02*
X138558000Y-121923121D01*
%TO.C,R2*%
X134198379Y-118490000D02*
X134533621Y-118490000D01*
X134198379Y-117730000D02*
X134533621Y-117730000D01*
%TO.C,R3*%
X139572000Y-111173879D02*
X139572000Y-111509121D01*
X138812000Y-111173879D02*
X138812000Y-111509121D01*
%TO.C,R4*%
X134452379Y-108076000D02*
X134787621Y-108076000D01*
X134452379Y-107316000D02*
X134787621Y-107316000D01*
D11*
%TO.C,U1*%
X116858000Y-115290000D02*
G75*
G03*
X116858000Y-115290000I-100000J0D01*
G01*
D12*
X118778000Y-115010000D02*
X121778000Y-115010000D01*
X118778000Y-118080000D02*
X121778000Y-118080000D01*
%TO.C,U2*%
X118760000Y-112350000D02*
X121760000Y-112350000D01*
X118760000Y-109280000D02*
X121760000Y-109280000D01*
D11*
X116840000Y-109560000D02*
G75*
G03*
X116840000Y-109560000I-100000J0D01*
G01*
D12*
%TO.C,U3*%
X132416000Y-124191000D02*
X136316000Y-124191000D01*
X132416000Y-119141000D02*
X136316000Y-119141000D01*
D11*
X130426000Y-119361000D02*
G75*
G03*
X130426000Y-119361000I-100000J0D01*
G01*
%TO.C,U4*%
X130680000Y-108947000D02*
G75*
G03*
X130680000Y-108947000I-100000J0D01*
G01*
D12*
X132670000Y-108727000D02*
X136570000Y-108727000D01*
X132670000Y-113777000D02*
X136570000Y-113777000D01*
%TO.C,U5*%
X116922000Y-126223000D02*
X120822000Y-126223000D01*
X116922000Y-121173000D02*
X120822000Y-121173000D01*
D11*
X114932000Y-121393000D02*
G75*
G03*
X114932000Y-121393000I-100000J0D01*
G01*
D10*
%TO.C,C11*%
X116588000Y-112984233D02*
X116588000Y-113276767D01*
X115568000Y-112984233D02*
X115568000Y-113276767D01*
%TO.C,C12*%
X115568000Y-118471733D02*
X115568000Y-118764267D01*
X116588000Y-118471733D02*
X116588000Y-118764267D01*
%TO.C,J2*%
X143770000Y-95430000D02*
X143270000Y-95430000D01*
X143770000Y-96170000D02*
X143770000Y-95430000D01*
X132197000Y-99307000D02*
X132244000Y-99261000D01*
X129900000Y-101605000D02*
X129935000Y-101569000D01*
X132004000Y-99091000D02*
X132039000Y-99056000D01*
X129695000Y-101399000D02*
X129742000Y-101353000D01*
X137197000Y-99307000D02*
X137244000Y-99261000D01*
X134900000Y-101605000D02*
X134935000Y-101569000D01*
X137004000Y-99091000D02*
X137039000Y-99056000D01*
X134695000Y-101399000D02*
X134742000Y-101353000D01*
X128410000Y-105591000D02*
X128410000Y-95670000D01*
X143530000Y-105591000D02*
X143530000Y-95670000D01*
X143530000Y-95670000D02*
X128410000Y-95670000D01*
X143530000Y-105591000D02*
X128410000Y-105591000D01*
X143530000Y-102631000D02*
X128410000Y-102631000D01*
X143530000Y-97730000D02*
X128410000Y-97730000D01*
X143530000Y-96230000D02*
X128410000Y-96230000D01*
X132650000Y-100330000D02*
G75*
G03*
X132650000Y-100330000I-1680000J0D01*
G01*
X137650000Y-100330000D02*
G75*
G03*
X137650000Y-100330000I-1680000J0D01*
G01*
X140286682Y-98795244D02*
G75*
G02*
X140970000Y-98650000I683318J-1534756D01*
G01*
X139434574Y-101013042D02*
G75*
G02*
X139435000Y-99646000I1535426J683042D01*
G01*
X141653042Y-101865426D02*
G75*
G02*
X140286000Y-101865000I-683042J1535426D01*
G01*
X142505426Y-99646958D02*
G75*
G02*
X142505000Y-101014000I-1535426J-683042D01*
G01*
X140941195Y-98649747D02*
G75*
G02*
X141654000Y-98795000I28805J-1680253D01*
G01*
%TO.C,C1*%
D13*
X139533333Y-106275142D02*
X139485714Y-106322761D01*
X139342857Y-106370380D01*
X139247619Y-106370380D01*
X139104761Y-106322761D01*
X139009523Y-106227523D01*
X138961904Y-106132285D01*
X138914285Y-105941809D01*
X138914285Y-105798952D01*
X138961904Y-105608476D01*
X139009523Y-105513238D01*
X139104761Y-105418000D01*
X139247619Y-105370380D01*
X139342857Y-105370380D01*
X139485714Y-105418000D01*
X139533333Y-105465619D01*
X140485714Y-106370380D02*
X139914285Y-106370380D01*
X140200000Y-106370380D02*
X140200000Y-105370380D01*
X140104761Y-105513238D01*
X140009523Y-105608476D01*
X139914285Y-105656095D01*
%TO.C,C2*%
X128881142Y-113551166D02*
X128928761Y-113598785D01*
X128976380Y-113741642D01*
X128976380Y-113836880D01*
X128928761Y-113979738D01*
X128833523Y-114074976D01*
X128738285Y-114122595D01*
X128547809Y-114170214D01*
X128404952Y-114170214D01*
X128214476Y-114122595D01*
X128119238Y-114074976D01*
X128024000Y-113979738D01*
X127976380Y-113836880D01*
X127976380Y-113741642D01*
X128024000Y-113598785D01*
X128071619Y-113551166D01*
X128071619Y-113170214D02*
X128024000Y-113122595D01*
X127976380Y-113027357D01*
X127976380Y-112789261D01*
X128024000Y-112694023D01*
X128071619Y-112646404D01*
X128166857Y-112598785D01*
X128262095Y-112598785D01*
X128404952Y-112646404D01*
X128976380Y-113217833D01*
X128976380Y-112598785D01*
%TO.C,C3*%
X137093833Y-107003142D02*
X137046214Y-107050761D01*
X136903357Y-107098380D01*
X136808119Y-107098380D01*
X136665261Y-107050761D01*
X136570023Y-106955523D01*
X136522404Y-106860285D01*
X136474785Y-106669809D01*
X136474785Y-106526952D01*
X136522404Y-106336476D01*
X136570023Y-106241238D01*
X136665261Y-106146000D01*
X136808119Y-106098380D01*
X136903357Y-106098380D01*
X137046214Y-106146000D01*
X137093833Y-106193619D01*
X137427166Y-106098380D02*
X138046214Y-106098380D01*
X137712880Y-106479333D01*
X137855738Y-106479333D01*
X137950976Y-106526952D01*
X137998595Y-106574571D01*
X138046214Y-106669809D01*
X138046214Y-106907904D01*
X137998595Y-107003142D01*
X137950976Y-107050761D01*
X137855738Y-107098380D01*
X137570023Y-107098380D01*
X137474785Y-107050761D01*
X137427166Y-107003142D01*
%TO.C,C4*%
X131913333Y-115961142D02*
X131865714Y-116008761D01*
X131722857Y-116056380D01*
X131627619Y-116056380D01*
X131484761Y-116008761D01*
X131389523Y-115913523D01*
X131341904Y-115818285D01*
X131294285Y-115627809D01*
X131294285Y-115484952D01*
X131341904Y-115294476D01*
X131389523Y-115199238D01*
X131484761Y-115104000D01*
X131627619Y-115056380D01*
X131722857Y-115056380D01*
X131865714Y-115104000D01*
X131913333Y-115151619D01*
X132770476Y-115389714D02*
X132770476Y-116056380D01*
X132532380Y-115008761D02*
X132294285Y-115723047D01*
X132913333Y-115723047D01*
%TO.C,C5*%
X126849142Y-114212666D02*
X126896761Y-114260285D01*
X126944380Y-114403142D01*
X126944380Y-114498380D01*
X126896761Y-114641238D01*
X126801523Y-114736476D01*
X126706285Y-114784095D01*
X126515809Y-114831714D01*
X126372952Y-114831714D01*
X126182476Y-114784095D01*
X126087238Y-114736476D01*
X125992000Y-114641238D01*
X125944380Y-114498380D01*
X125944380Y-114403142D01*
X125992000Y-114260285D01*
X126039619Y-114212666D01*
X125944380Y-113307904D02*
X125944380Y-113784095D01*
X126420571Y-113831714D01*
X126372952Y-113784095D01*
X126325333Y-113688857D01*
X126325333Y-113450761D01*
X126372952Y-113355523D01*
X126420571Y-113307904D01*
X126515809Y-113260285D01*
X126753904Y-113260285D01*
X126849142Y-113307904D01*
X126896761Y-113355523D01*
X126944380Y-113450761D01*
X126944380Y-113688857D01*
X126896761Y-113784095D01*
X126849142Y-113831714D01*
%TO.C,C6*%
X126849142Y-108116666D02*
X126896761Y-108164285D01*
X126944380Y-108307142D01*
X126944380Y-108402380D01*
X126896761Y-108545238D01*
X126801523Y-108640476D01*
X126706285Y-108688095D01*
X126515809Y-108735714D01*
X126372952Y-108735714D01*
X126182476Y-108688095D01*
X126087238Y-108640476D01*
X125992000Y-108545238D01*
X125944380Y-108402380D01*
X125944380Y-108307142D01*
X125992000Y-108164285D01*
X126039619Y-108116666D01*
X125944380Y-107259523D02*
X125944380Y-107450000D01*
X125992000Y-107545238D01*
X126039619Y-107592857D01*
X126182476Y-107688095D01*
X126372952Y-107735714D01*
X126753904Y-107735714D01*
X126849142Y-107688095D01*
X126896761Y-107640476D01*
X126944380Y-107545238D01*
X126944380Y-107354761D01*
X126896761Y-107259523D01*
X126849142Y-107211904D01*
X126753904Y-107164285D01*
X126515809Y-107164285D01*
X126420571Y-107211904D01*
X126372952Y-107259523D01*
X126325333Y-107354761D01*
X126325333Y-107545238D01*
X126372952Y-107640476D01*
X126420571Y-107688095D01*
X126515809Y-107735714D01*
%TO.C,C7*%
X125579142Y-114212666D02*
X125626761Y-114260285D01*
X125674380Y-114403142D01*
X125674380Y-114498380D01*
X125626761Y-114641238D01*
X125531523Y-114736476D01*
X125436285Y-114784095D01*
X125245809Y-114831714D01*
X125102952Y-114831714D01*
X124912476Y-114784095D01*
X124817238Y-114736476D01*
X124722000Y-114641238D01*
X124674380Y-114498380D01*
X124674380Y-114403142D01*
X124722000Y-114260285D01*
X124769619Y-114212666D01*
X124674380Y-113879333D02*
X124674380Y-113212666D01*
X125674380Y-113641238D01*
%TO.C,C8*%
X125579142Y-108116666D02*
X125626761Y-108164285D01*
X125674380Y-108307142D01*
X125674380Y-108402380D01*
X125626761Y-108545238D01*
X125531523Y-108640476D01*
X125436285Y-108688095D01*
X125245809Y-108735714D01*
X125102952Y-108735714D01*
X124912476Y-108688095D01*
X124817238Y-108640476D01*
X124722000Y-108545238D01*
X124674380Y-108402380D01*
X124674380Y-108307142D01*
X124722000Y-108164285D01*
X124769619Y-108116666D01*
X125102952Y-107545238D02*
X125055333Y-107640476D01*
X125007714Y-107688095D01*
X124912476Y-107735714D01*
X124864857Y-107735714D01*
X124769619Y-107688095D01*
X124722000Y-107640476D01*
X124674380Y-107545238D01*
X124674380Y-107354761D01*
X124722000Y-107259523D01*
X124769619Y-107211904D01*
X124864857Y-107164285D01*
X124912476Y-107164285D01*
X125007714Y-107211904D01*
X125055333Y-107259523D01*
X125102952Y-107354761D01*
X125102952Y-107545238D01*
X125150571Y-107640476D01*
X125198190Y-107688095D01*
X125293428Y-107735714D01*
X125483904Y-107735714D01*
X125579142Y-107688095D01*
X125626761Y-107640476D01*
X125674380Y-107545238D01*
X125674380Y-107354761D01*
X125626761Y-107259523D01*
X125579142Y-107211904D01*
X125483904Y-107164285D01*
X125293428Y-107164285D01*
X125198190Y-107211904D01*
X125150571Y-107259523D01*
X125102952Y-107354761D01*
%TO.C,C9*%
X124309142Y-114212666D02*
X124356761Y-114260285D01*
X124404380Y-114403142D01*
X124404380Y-114498380D01*
X124356761Y-114641238D01*
X124261523Y-114736476D01*
X124166285Y-114784095D01*
X123975809Y-114831714D01*
X123832952Y-114831714D01*
X123642476Y-114784095D01*
X123547238Y-114736476D01*
X123452000Y-114641238D01*
X123404380Y-114498380D01*
X123404380Y-114403142D01*
X123452000Y-114260285D01*
X123499619Y-114212666D01*
X124404380Y-113736476D02*
X124404380Y-113546000D01*
X124356761Y-113450761D01*
X124309142Y-113403142D01*
X124166285Y-113307904D01*
X123975809Y-113260285D01*
X123594857Y-113260285D01*
X123499619Y-113307904D01*
X123452000Y-113355523D01*
X123404380Y-113450761D01*
X123404380Y-113641238D01*
X123452000Y-113736476D01*
X123499619Y-113784095D01*
X123594857Y-113831714D01*
X123832952Y-113831714D01*
X123928190Y-113784095D01*
X123975809Y-113736476D01*
X124023428Y-113641238D01*
X124023428Y-113450761D01*
X123975809Y-113355523D01*
X123928190Y-113307904D01*
X123832952Y-113260285D01*
%TO.C,C10*%
X124309142Y-109100857D02*
X124356761Y-109148476D01*
X124404380Y-109291333D01*
X124404380Y-109386571D01*
X124356761Y-109529428D01*
X124261523Y-109624666D01*
X124166285Y-109672285D01*
X123975809Y-109719904D01*
X123832952Y-109719904D01*
X123642476Y-109672285D01*
X123547238Y-109624666D01*
X123452000Y-109529428D01*
X123404380Y-109386571D01*
X123404380Y-109291333D01*
X123452000Y-109148476D01*
X123499619Y-109100857D01*
X124404380Y-108148476D02*
X124404380Y-108719904D01*
X124404380Y-108434190D02*
X123404380Y-108434190D01*
X123547238Y-108529428D01*
X123642476Y-108624666D01*
X123690095Y-108719904D01*
X123404380Y-107529428D02*
X123404380Y-107434190D01*
X123452000Y-107338952D01*
X123499619Y-107291333D01*
X123594857Y-107243714D01*
X123785333Y-107196095D01*
X124023428Y-107196095D01*
X124213904Y-107243714D01*
X124309142Y-107291333D01*
X124356761Y-107338952D01*
X124404380Y-107434190D01*
X124404380Y-107529428D01*
X124356761Y-107624666D01*
X124309142Y-107672285D01*
X124213904Y-107719904D01*
X124023428Y-107767523D01*
X123785333Y-107767523D01*
X123594857Y-107719904D01*
X123499619Y-107672285D01*
X123452000Y-107624666D01*
X123404380Y-107529428D01*
%TO.C,C21*%
X139057142Y-116435142D02*
X139009523Y-116482761D01*
X138866666Y-116530380D01*
X138771428Y-116530380D01*
X138628571Y-116482761D01*
X138533333Y-116387523D01*
X138485714Y-116292285D01*
X138438095Y-116101809D01*
X138438095Y-115958952D01*
X138485714Y-115768476D01*
X138533333Y-115673238D01*
X138628571Y-115578000D01*
X138771428Y-115530380D01*
X138866666Y-115530380D01*
X139009523Y-115578000D01*
X139057142Y-115625619D01*
X139438095Y-115625619D02*
X139485714Y-115578000D01*
X139580952Y-115530380D01*
X139819047Y-115530380D01*
X139914285Y-115578000D01*
X139961904Y-115625619D01*
X140009523Y-115720857D01*
X140009523Y-115816095D01*
X139961904Y-115958952D01*
X139390476Y-116530380D01*
X140009523Y-116530380D01*
X140961904Y-116530380D02*
X140390476Y-116530380D01*
X140676190Y-116530380D02*
X140676190Y-115530380D01*
X140580952Y-115673238D01*
X140485714Y-115768476D01*
X140390476Y-115816095D01*
%TO.C,C22*%
X128389142Y-121515142D02*
X128341523Y-121562761D01*
X128198666Y-121610380D01*
X128103428Y-121610380D01*
X127960571Y-121562761D01*
X127865333Y-121467523D01*
X127817714Y-121372285D01*
X127770095Y-121181809D01*
X127770095Y-121038952D01*
X127817714Y-120848476D01*
X127865333Y-120753238D01*
X127960571Y-120658000D01*
X128103428Y-120610380D01*
X128198666Y-120610380D01*
X128341523Y-120658000D01*
X128389142Y-120705619D01*
X128770095Y-120705619D02*
X128817714Y-120658000D01*
X128912952Y-120610380D01*
X129151047Y-120610380D01*
X129246285Y-120658000D01*
X129293904Y-120705619D01*
X129341523Y-120800857D01*
X129341523Y-120896095D01*
X129293904Y-121038952D01*
X128722476Y-121610380D01*
X129341523Y-121610380D01*
X129722476Y-120705619D02*
X129770095Y-120658000D01*
X129865333Y-120610380D01*
X130103428Y-120610380D01*
X130198666Y-120658000D01*
X130246285Y-120705619D01*
X130293904Y-120800857D01*
X130293904Y-120896095D01*
X130246285Y-121038952D01*
X129674857Y-121610380D01*
X130293904Y-121610380D01*
%TO.C,C23*%
X136263142Y-117417142D02*
X136215523Y-117464761D01*
X136072666Y-117512380D01*
X135977428Y-117512380D01*
X135834571Y-117464761D01*
X135739333Y-117369523D01*
X135691714Y-117274285D01*
X135644095Y-117083809D01*
X135644095Y-116940952D01*
X135691714Y-116750476D01*
X135739333Y-116655238D01*
X135834571Y-116560000D01*
X135977428Y-116512380D01*
X136072666Y-116512380D01*
X136215523Y-116560000D01*
X136263142Y-116607619D01*
X136644095Y-116607619D02*
X136691714Y-116560000D01*
X136786952Y-116512380D01*
X137025047Y-116512380D01*
X137120285Y-116560000D01*
X137167904Y-116607619D01*
X137215523Y-116702857D01*
X137215523Y-116798095D01*
X137167904Y-116940952D01*
X136596476Y-117512380D01*
X137215523Y-117512380D01*
X137548857Y-116512380D02*
X138167904Y-116512380D01*
X137834571Y-116893333D01*
X137977428Y-116893333D01*
X138072666Y-116940952D01*
X138120285Y-116988571D01*
X138167904Y-117083809D01*
X138167904Y-117321904D01*
X138120285Y-117417142D01*
X138072666Y-117464761D01*
X137977428Y-117512380D01*
X137691714Y-117512380D01*
X137596476Y-117464761D01*
X137548857Y-117417142D01*
%TO.C,C24*%
X131183142Y-126375142D02*
X131135523Y-126422761D01*
X130992666Y-126470380D01*
X130897428Y-126470380D01*
X130754571Y-126422761D01*
X130659333Y-126327523D01*
X130611714Y-126232285D01*
X130564095Y-126041809D01*
X130564095Y-125898952D01*
X130611714Y-125708476D01*
X130659333Y-125613238D01*
X130754571Y-125518000D01*
X130897428Y-125470380D01*
X130992666Y-125470380D01*
X131135523Y-125518000D01*
X131183142Y-125565619D01*
X131564095Y-125565619D02*
X131611714Y-125518000D01*
X131706952Y-125470380D01*
X131945047Y-125470380D01*
X132040285Y-125518000D01*
X132087904Y-125565619D01*
X132135523Y-125660857D01*
X132135523Y-125756095D01*
X132087904Y-125898952D01*
X131516476Y-126470380D01*
X132135523Y-126470380D01*
X132992666Y-125803714D02*
X132992666Y-126470380D01*
X132754571Y-125422761D02*
X132516476Y-126137047D01*
X133135523Y-126137047D01*
%TO.C,J1*%
X112442666Y-106410380D02*
X112442666Y-107124666D01*
X112395047Y-107267523D01*
X112299809Y-107362761D01*
X112156952Y-107410380D01*
X112061714Y-107410380D01*
X113442666Y-107410380D02*
X112871238Y-107410380D01*
X113156952Y-107410380D02*
X113156952Y-106410380D01*
X113061714Y-106553238D01*
X112966476Y-106648476D01*
X112871238Y-106696095D01*
%TO.C,J3*%
X116184666Y-105278380D02*
X116184666Y-105992666D01*
X116137047Y-106135523D01*
X116041809Y-106230761D01*
X115898952Y-106278380D01*
X115803714Y-106278380D01*
X116565619Y-105278380D02*
X117184666Y-105278380D01*
X116851333Y-105659333D01*
X116994190Y-105659333D01*
X117089428Y-105706952D01*
X117137047Y-105754571D01*
X117184666Y-105849809D01*
X117184666Y-106087904D01*
X117137047Y-106183142D01*
X117089428Y-106230761D01*
X116994190Y-106278380D01*
X116708476Y-106278380D01*
X116613238Y-106230761D01*
X116565619Y-106183142D01*
%TO.C,J4*%
X139366666Y-124420380D02*
X139366666Y-125134666D01*
X139319047Y-125277523D01*
X139223809Y-125372761D01*
X139080952Y-125420380D01*
X138985714Y-125420380D01*
X140271428Y-124753714D02*
X140271428Y-125420380D01*
X140033333Y-124372761D02*
X139795238Y-125087047D01*
X140414285Y-125087047D01*
%TO.C,J5*%
X139366666Y-114006380D02*
X139366666Y-114720666D01*
X139319047Y-114863523D01*
X139223809Y-114958761D01*
X139080952Y-115006380D01*
X138985714Y-115006380D01*
X140319047Y-114006380D02*
X139842857Y-114006380D01*
X139795238Y-114482571D01*
X139842857Y-114434952D01*
X139938095Y-114387333D01*
X140176190Y-114387333D01*
X140271428Y-114434952D01*
X140319047Y-114482571D01*
X140366666Y-114577809D01*
X140366666Y-114815904D01*
X140319047Y-114911142D01*
X140271428Y-114958761D01*
X140176190Y-115006380D01*
X139938095Y-115006380D01*
X139842857Y-114958761D01*
X139795238Y-114911142D01*
%TO.C,R1*%
X140560380Y-121922166D02*
X140084190Y-122255500D01*
X140560380Y-122493595D02*
X139560380Y-122493595D01*
X139560380Y-122112642D01*
X139608000Y-122017404D01*
X139655619Y-121969785D01*
X139750857Y-121922166D01*
X139893714Y-121922166D01*
X139988952Y-121969785D01*
X140036571Y-122017404D01*
X140084190Y-122112642D01*
X140084190Y-122493595D01*
X140560380Y-120969785D02*
X140560380Y-121541214D01*
X140560380Y-121255500D02*
X139560380Y-121255500D01*
X139703238Y-121350738D01*
X139798476Y-121445976D01*
X139846095Y-121541214D01*
%TO.C,R2*%
X134199333Y-117392380D02*
X133866000Y-116916190D01*
X133627904Y-117392380D02*
X133627904Y-116392380D01*
X134008857Y-116392380D01*
X134104095Y-116440000D01*
X134151714Y-116487619D01*
X134199333Y-116582857D01*
X134199333Y-116725714D01*
X134151714Y-116820952D01*
X134104095Y-116868571D01*
X134008857Y-116916190D01*
X133627904Y-116916190D01*
X134580285Y-116487619D02*
X134627904Y-116440000D01*
X134723142Y-116392380D01*
X134961238Y-116392380D01*
X135056476Y-116440000D01*
X135104095Y-116487619D01*
X135151714Y-116582857D01*
X135151714Y-116678095D01*
X135104095Y-116820952D01*
X134532666Y-117392380D01*
X135151714Y-117392380D01*
%TO.C,R3*%
X140914380Y-111672666D02*
X140438190Y-112006000D01*
X140914380Y-112244095D02*
X139914380Y-112244095D01*
X139914380Y-111863142D01*
X139962000Y-111767904D01*
X140009619Y-111720285D01*
X140104857Y-111672666D01*
X140247714Y-111672666D01*
X140342952Y-111720285D01*
X140390571Y-111767904D01*
X140438190Y-111863142D01*
X140438190Y-112244095D01*
X139914380Y-111339333D02*
X139914380Y-110720285D01*
X140295333Y-111053619D01*
X140295333Y-110910761D01*
X140342952Y-110815523D01*
X140390571Y-110767904D01*
X140485809Y-110720285D01*
X140723904Y-110720285D01*
X140819142Y-110767904D01*
X140866761Y-110815523D01*
X140914380Y-110910761D01*
X140914380Y-111196476D01*
X140866761Y-111291714D01*
X140819142Y-111339333D01*
%TO.C,R4*%
X134453333Y-106978380D02*
X134120000Y-106502190D01*
X133881904Y-106978380D02*
X133881904Y-105978380D01*
X134262857Y-105978380D01*
X134358095Y-106026000D01*
X134405714Y-106073619D01*
X134453333Y-106168857D01*
X134453333Y-106311714D01*
X134405714Y-106406952D01*
X134358095Y-106454571D01*
X134262857Y-106502190D01*
X133881904Y-106502190D01*
X135310476Y-106311714D02*
X135310476Y-106978380D01*
X135072380Y-105930761D02*
X134834285Y-106645047D01*
X135453333Y-106645047D01*
%TO.C,U1*%
X119634095Y-116038380D02*
X119634095Y-116847904D01*
X119681714Y-116943142D01*
X119729333Y-116990761D01*
X119824571Y-117038380D01*
X120015047Y-117038380D01*
X120110285Y-116990761D01*
X120157904Y-116943142D01*
X120205523Y-116847904D01*
X120205523Y-116038380D01*
X121205523Y-117038380D02*
X120634095Y-117038380D01*
X120919809Y-117038380D02*
X120919809Y-116038380D01*
X120824571Y-116181238D01*
X120729333Y-116276476D01*
X120634095Y-116324095D01*
%TO.C,U2*%
X119634095Y-110196380D02*
X119634095Y-111005904D01*
X119681714Y-111101142D01*
X119729333Y-111148761D01*
X119824571Y-111196380D01*
X120015047Y-111196380D01*
X120110285Y-111148761D01*
X120157904Y-111101142D01*
X120205523Y-111005904D01*
X120205523Y-110196380D01*
X120634095Y-110291619D02*
X120681714Y-110244000D01*
X120776952Y-110196380D01*
X121015047Y-110196380D01*
X121110285Y-110244000D01*
X121157904Y-110291619D01*
X121205523Y-110386857D01*
X121205523Y-110482095D01*
X121157904Y-110624952D01*
X120586476Y-111196380D01*
X121205523Y-111196380D01*
%TO.C,U3*%
X133604095Y-121118380D02*
X133604095Y-121927904D01*
X133651714Y-122023142D01*
X133699333Y-122070761D01*
X133794571Y-122118380D01*
X133985047Y-122118380D01*
X134080285Y-122070761D01*
X134127904Y-122023142D01*
X134175523Y-121927904D01*
X134175523Y-121118380D01*
X134556476Y-121118380D02*
X135175523Y-121118380D01*
X134842190Y-121499333D01*
X134985047Y-121499333D01*
X135080285Y-121546952D01*
X135127904Y-121594571D01*
X135175523Y-121689809D01*
X135175523Y-121927904D01*
X135127904Y-122023142D01*
X135080285Y-122070761D01*
X134985047Y-122118380D01*
X134699333Y-122118380D01*
X134604095Y-122070761D01*
X134556476Y-122023142D01*
%TO.C,U4*%
X133858095Y-110704380D02*
X133858095Y-111513904D01*
X133905714Y-111609142D01*
X133953333Y-111656761D01*
X134048571Y-111704380D01*
X134239047Y-111704380D01*
X134334285Y-111656761D01*
X134381904Y-111609142D01*
X134429523Y-111513904D01*
X134429523Y-110704380D01*
X135334285Y-111037714D02*
X135334285Y-111704380D01*
X135096190Y-110656761D02*
X134858095Y-111371047D01*
X135477142Y-111371047D01*
%TO.C,U5*%
X118110095Y-122896380D02*
X118110095Y-123705904D01*
X118157714Y-123801142D01*
X118205333Y-123848761D01*
X118300571Y-123896380D01*
X118491047Y-123896380D01*
X118586285Y-123848761D01*
X118633904Y-123801142D01*
X118681523Y-123705904D01*
X118681523Y-122896380D01*
X119633904Y-122896380D02*
X119157714Y-122896380D01*
X119110095Y-123372571D01*
X119157714Y-123324952D01*
X119252952Y-123277333D01*
X119491047Y-123277333D01*
X119586285Y-123324952D01*
X119633904Y-123372571D01*
X119681523Y-123467809D01*
X119681523Y-123705904D01*
X119633904Y-123801142D01*
X119586285Y-123848761D01*
X119491047Y-123896380D01*
X119252952Y-123896380D01*
X119157714Y-123848761D01*
X119110095Y-123801142D01*
%TO.C,C11*%
X115165142Y-113926857D02*
X115212761Y-113974476D01*
X115260380Y-114117333D01*
X115260380Y-114212571D01*
X115212761Y-114355428D01*
X115117523Y-114450666D01*
X115022285Y-114498285D01*
X114831809Y-114545904D01*
X114688952Y-114545904D01*
X114498476Y-114498285D01*
X114403238Y-114450666D01*
X114308000Y-114355428D01*
X114260380Y-114212571D01*
X114260380Y-114117333D01*
X114308000Y-113974476D01*
X114355619Y-113926857D01*
X115260380Y-112974476D02*
X115260380Y-113545904D01*
X115260380Y-113260190D02*
X114260380Y-113260190D01*
X114403238Y-113355428D01*
X114498476Y-113450666D01*
X114546095Y-113545904D01*
X115260380Y-112022095D02*
X115260380Y-112593523D01*
X115260380Y-112307809D02*
X114260380Y-112307809D01*
X114403238Y-112403047D01*
X114498476Y-112498285D01*
X114546095Y-112593523D01*
%TO.C,C12*%
X115165142Y-119514857D02*
X115212761Y-119562476D01*
X115260380Y-119705333D01*
X115260380Y-119800571D01*
X115212761Y-119943428D01*
X115117523Y-120038666D01*
X115022285Y-120086285D01*
X114831809Y-120133904D01*
X114688952Y-120133904D01*
X114498476Y-120086285D01*
X114403238Y-120038666D01*
X114308000Y-119943428D01*
X114260380Y-119800571D01*
X114260380Y-119705333D01*
X114308000Y-119562476D01*
X114355619Y-119514857D01*
X115260380Y-118562476D02*
X115260380Y-119133904D01*
X115260380Y-118848190D02*
X114260380Y-118848190D01*
X114403238Y-118943428D01*
X114498476Y-119038666D01*
X114546095Y-119133904D01*
X114355619Y-118181523D02*
X114308000Y-118133904D01*
X114260380Y-118038666D01*
X114260380Y-117800571D01*
X114308000Y-117705333D01*
X114355619Y-117657714D01*
X114450857Y-117610095D01*
X114546095Y-117610095D01*
X114688952Y-117657714D01*
X115260380Y-118229142D01*
X115260380Y-117610095D01*
%TO.C,C13*%
X120007142Y-113387142D02*
X119959523Y-113434761D01*
X119816666Y-113482380D01*
X119721428Y-113482380D01*
X119578571Y-113434761D01*
X119483333Y-113339523D01*
X119435714Y-113244285D01*
X119388095Y-113053809D01*
X119388095Y-112910952D01*
X119435714Y-112720476D01*
X119483333Y-112625238D01*
X119578571Y-112530000D01*
X119721428Y-112482380D01*
X119816666Y-112482380D01*
X119959523Y-112530000D01*
X120007142Y-112577619D01*
X120959523Y-113482380D02*
X120388095Y-113482380D01*
X120673809Y-113482380D02*
X120673809Y-112482380D01*
X120578571Y-112625238D01*
X120483333Y-112720476D01*
X120388095Y-112768095D01*
X121292857Y-112482380D02*
X121911904Y-112482380D01*
X121578571Y-112863333D01*
X121721428Y-112863333D01*
X121816666Y-112910952D01*
X121864285Y-112958571D01*
X121911904Y-113053809D01*
X121911904Y-113291904D01*
X121864285Y-113387142D01*
X121816666Y-113434761D01*
X121721428Y-113482380D01*
X121435714Y-113482380D01*
X121340476Y-113434761D01*
X121292857Y-113387142D01*
%TO.C,C14*%
X120007142Y-119229142D02*
X119959523Y-119276761D01*
X119816666Y-119324380D01*
X119721428Y-119324380D01*
X119578571Y-119276761D01*
X119483333Y-119181523D01*
X119435714Y-119086285D01*
X119388095Y-118895809D01*
X119388095Y-118752952D01*
X119435714Y-118562476D01*
X119483333Y-118467238D01*
X119578571Y-118372000D01*
X119721428Y-118324380D01*
X119816666Y-118324380D01*
X119959523Y-118372000D01*
X120007142Y-118419619D01*
X120959523Y-119324380D02*
X120388095Y-119324380D01*
X120673809Y-119324380D02*
X120673809Y-118324380D01*
X120578571Y-118467238D01*
X120483333Y-118562476D01*
X120388095Y-118610095D01*
X121816666Y-118657714D02*
X121816666Y-119324380D01*
X121578571Y-118276761D02*
X121340476Y-118991047D01*
X121959523Y-118991047D01*
%TO.C,C15*%
X120007142Y-114403142D02*
X119959523Y-114450761D01*
X119816666Y-114498380D01*
X119721428Y-114498380D01*
X119578571Y-114450761D01*
X119483333Y-114355523D01*
X119435714Y-114260285D01*
X119388095Y-114069809D01*
X119388095Y-113926952D01*
X119435714Y-113736476D01*
X119483333Y-113641238D01*
X119578571Y-113546000D01*
X119721428Y-113498380D01*
X119816666Y-113498380D01*
X119959523Y-113546000D01*
X120007142Y-113593619D01*
X120959523Y-114498380D02*
X120388095Y-114498380D01*
X120673809Y-114498380D02*
X120673809Y-113498380D01*
X120578571Y-113641238D01*
X120483333Y-113736476D01*
X120388095Y-113784095D01*
X121864285Y-113498380D02*
X121388095Y-113498380D01*
X121340476Y-113974571D01*
X121388095Y-113926952D01*
X121483333Y-113879333D01*
X121721428Y-113879333D01*
X121816666Y-113926952D01*
X121864285Y-113974571D01*
X121911904Y-114069809D01*
X121911904Y-114307904D01*
X121864285Y-114403142D01*
X121816666Y-114450761D01*
X121721428Y-114498380D01*
X121483333Y-114498380D01*
X121388095Y-114450761D01*
X121340476Y-114403142D01*
%TO.C,C16*%
X120007142Y-120499142D02*
X119959523Y-120546761D01*
X119816666Y-120594380D01*
X119721428Y-120594380D01*
X119578571Y-120546761D01*
X119483333Y-120451523D01*
X119435714Y-120356285D01*
X119388095Y-120165809D01*
X119388095Y-120022952D01*
X119435714Y-119832476D01*
X119483333Y-119737238D01*
X119578571Y-119642000D01*
X119721428Y-119594380D01*
X119816666Y-119594380D01*
X119959523Y-119642000D01*
X120007142Y-119689619D01*
X120959523Y-120594380D02*
X120388095Y-120594380D01*
X120673809Y-120594380D02*
X120673809Y-119594380D01*
X120578571Y-119737238D01*
X120483333Y-119832476D01*
X120388095Y-119880095D01*
X121816666Y-119594380D02*
X121626190Y-119594380D01*
X121530952Y-119642000D01*
X121483333Y-119689619D01*
X121388095Y-119832476D01*
X121340476Y-120022952D01*
X121340476Y-120403904D01*
X121388095Y-120499142D01*
X121435714Y-120546761D01*
X121530952Y-120594380D01*
X121721428Y-120594380D01*
X121816666Y-120546761D01*
X121864285Y-120499142D01*
X121911904Y-120403904D01*
X121911904Y-120165809D01*
X121864285Y-120070571D01*
X121816666Y-120022952D01*
X121721428Y-119975333D01*
X121530952Y-119975333D01*
X121435714Y-120022952D01*
X121388095Y-120070571D01*
X121340476Y-120165809D01*
%TO.C,J2*%
X130984666Y-106132380D02*
X130984666Y-106846666D01*
X130937047Y-106989523D01*
X130841809Y-107084761D01*
X130698952Y-107132380D01*
X130603714Y-107132380D01*
X131413238Y-106227619D02*
X131460857Y-106180000D01*
X131556095Y-106132380D01*
X131794190Y-106132380D01*
X131889428Y-106180000D01*
X131937047Y-106227619D01*
X131984666Y-106322857D01*
X131984666Y-106418095D01*
X131937047Y-106560952D01*
X131365619Y-107132380D01*
X131984666Y-107132380D01*
%TO.C,H1*%
X124968095Y-120904380D02*
X124968095Y-119904380D01*
X124968095Y-120380571D02*
X125539523Y-120380571D01*
X125539523Y-120904380D02*
X125539523Y-119904380D01*
X126539523Y-120904380D02*
X125968095Y-120904380D01*
X126253809Y-120904380D02*
X126253809Y-119904380D01*
X126158571Y-120047238D01*
X126063333Y-120142476D01*
X125968095Y-120190095D01*
%TD*%
M02*
