M48
; DRILL file {KiCad 5.1.9+dfsg1-1+deb11u1} date Wed Feb 22 14:32:54 2023
; FORMAT={-:-/ absolute / metric / decimal}
; #@! TF.CreationDate,2023-02-22T14:32:54-05:00
; #@! TF.GenerationSoftware,Kicad,Pcbnew,5.1.9+dfsg1-1+deb11u1
; #@! TF.FileFunction,Plated,1,2,PTH
FMAT,2
METRIC
T1C0.400
T2C1.000
T3C1.300
T4C2.500
%
G90
G05
T1
X113.538Y-110.49
X114.808Y-116.586
X116.84Y-120.65
X116.845Y-115.311
X117.851Y-120.899
X119.38Y-118.872
X119.629Y-115.057
X119.634Y-116.078
X119.888Y-119.888
X119.888Y-122.936
X123.698Y-112.268
X124.075Y-117.994
X125.222Y-113.792
X125.222Y-117.994
X128.27Y-106.68
X128.663Y-111.983
X129.794Y-115.443
X130.048Y-121.158
X130.302Y-110.744
X132.08Y-125.984
X135.128Y-116.168
X136.144Y-108.458
X136.144Y-117.618
T2
X112.776Y-109.728
X112.776Y-112.268
X112.776Y-114.808
X112.776Y-117.348
X112.776Y-119.888
X112.776Y-122.428
X112.776Y-124.968
X142.494Y-108.204
X142.494Y-110.744
X142.494Y-113.284
X142.494Y-118.618
X142.494Y-121.158
X142.494Y-123.698
T3
X130.97Y-100.33
X135.97Y-100.33
X140.97Y-100.33
T4
X125.73Y-123.952
T2
G00X118.968Y-99.076
M15
G01X118.968Y-101.076
M16
G05
G00X120.968Y-104.776
M15
G01X122.968Y-104.776
M16
G05
G00X124.968Y-99.076
M15
G01X124.968Y-101.076
M16
G05
T0
M30
